<?xml version="1.0" encoding="UTF-8" standalone="no"?>
<!-- Created with Inkscape (http://www.inkscape.org/) -->

<svg
   version="1.1"
   id="svg2"
   width="1333.3333"
   height="686.66669"
   viewBox="0 0 1333.3333 686.66669"
   sodipodi:docname="Primary Logo.ai"
   xmlns:inkscape="http://www.inkscape.org/namespaces/inkscape"
   xmlns:sodipodi="http://sodipodi.sourceforge.net/DTD/sodipodi-0.dtd"
   xmlns="http://www.w3.org/2000/svg"
   xmlns:svg="http://www.w3.org/2000/svg">
  <defs
     id="defs6">
    <clipPath
       clipPathUnits="userSpaceOnUse"
       id="clipPath28">
      <path
         d="M 0,515 H 1000 V 0 H 0 Z"
         id="path26" />
    </clipPath>
  </defs>
  <sodipodi:namedview
     id="namedview4"
     pagecolor="#ffffff"
     bordercolor="#000000"
     borderopacity="0.25"
     inkscape:showpageshadow="2"
     inkscape:pageopacity="0.0"
     inkscape:pagecheckerboard="0"
     inkscape:deskcolor="#d1d1d1" />
  <g
     id="g8"
     inkscape:groupmode="layer"
     inkscape:label="Primary Logo"
     transform="matrix(1.3333333,0,0,-1.3333333,0,686.66667)">
    <text
       xml:space="preserve"
       transform="matrix(1,0,0,-1,628.98256,236.7158)"
       style="font-variant:normal;font-weight:normal;font-stretch:normal;font-size:119.995px;font-family:Cocon-Regular;-inkscape-font-specification:Cocon-Regular;writing-mode:lr-tb;fill:#7b6fd3;fill-opacity:1;fill-rule:nonzero;stroke:none"
       id="text16"><tspan
         x="0 73.076836 112.97511 161.573 210.1709 277.12799"
         y="0"
         sodipodi:role="line"
         id="tspan10">Kitten</tspan><tspan
         x="-96.475822 -24.178951 42.778145 101.81559 163.01294 235.42979 302.3869"
         y="75.596725"
         sodipodi:role="line"
         id="tspan12">Rescue </tspan><tspan
         x="-34.438507 33.118565 79.436554 151.67343 188.03185 254.98895 316.18631"
         y="166.19279"
         sodipodi:role="line"
         id="tspan14">Project</tspan></text>
    <text
       xml:space="preserve"
       transform="matrix(1,0,0,-1,541.1221,329.9424)"
       style="font-variant:normal;font-weight:normal;font-stretch:normal;font-size:69.3945px;font-family:Cocon-Regular;-inkscape-font-specification:Cocon-Regular;writing-mode:lr-tb;fill:#7b6fd3;fill-opacity:1;fill-rule:nonzero;stroke:none"
       id="text20"><tspan
         x="0 38.513947 80.844589"
         y="0"
         sodipodi:role="line"
         id="tspan18">The</tspan></text>
    <g
       id="g22">
      <g
         id="g24"
         clip-path="url(#clipPath28)">
        <g
           id="g30"
           transform="translate(207.459,306.8858)">
          <path
             d="m 0,0 c -6.301,0 -11.428,5.361 -11.428,11.949 0,6.589 5.127,11.949 11.428,11.949 6.301,0 11.428,-5.36 11.428,-11.949 C 11.428,5.361 6.301,0 0,0 m -33.023,4.867 c -2.084,0 -3.78,1.696 -3.78,3.78 0,2.084 1.696,3.78 3.78,3.78 2.084,0 3.78,-1.696 3.78,-3.78 0,-2.084 -1.696,-3.78 -3.78,-3.78 m 54.618,7.082 c 0,17.466 -14.21,31.676 -31.676,31.676 -17.466,0 -31.676,-14.21 -31.676,-31.676 0,-17.466 14.21,-31.676 31.676,-31.676 17.466,0 31.676,14.21 31.676,31.676"
             style="fill:#7b6fd3;fill-opacity:1;fill-rule:nonzero;stroke:none"
             id="path32" />
        </g>
        <g
           id="g34"
           transform="translate(356.0621,306.8858)">
          <path
             d="m 0,0 c -6.301,0 -11.428,5.361 -11.428,11.949 0,6.589 5.127,11.949 11.428,11.949 6.301,0 11.428,-5.36 11.428,-11.949 C 11.428,5.361 6.301,0 0,0 m -33.023,4.867 c -2.084,0 -3.78,1.696 -3.78,3.78 0,2.084 1.696,3.78 3.78,3.78 2.084,0 3.78,-1.696 3.78,-3.78 0,-2.084 -1.696,-3.78 -3.78,-3.78 m 54.618,7.082 c 0,17.466 -14.21,31.676 -31.676,31.676 -17.466,0 -31.676,-14.21 -31.676,-31.676 0,-17.466 14.21,-31.676 31.676,-31.676 17.466,0 31.676,14.21 31.676,31.676"
             style="fill:#7b6fd3;fill-opacity:1;fill-rule:nonzero;stroke:none"
             id="path36" />
        </g>
        <g
           id="g38"
           transform="translate(231.6852,290.7715)">
          <path
             d="M 0,0 C -0.232,0.331 -0.441,0.644 -0.64,0.957 L -0.755,0.896 C -0.593,0.525 -0.373,0.195 -0.1,-0.083 Z"
             style="fill:#7b6fd3;fill-opacity:1;fill-rule:nonzero;stroke:none"
             id="path40" />
        </g>
        <g
           id="g42"
           transform="translate(312.9596,291.6789)">
          <path
             d="m 0,0 -0.01,-0.02 c -0.198,-0.312 -0.409,-0.627 -0.643,-0.962 -1.864,-2.648 -4.238,-4.832 -6.934,-6.465 2.849,1.635 5.017,3.848 6.913,6.54 0.229,0.328 0.714,0.636 0.714,0.94 v 0.009 l -0.072,0.016 c 0.151,0.366 0.184,0.754 0.184,1.156 0,0.737 -0.212,1.405 -0.675,1.93 0.418,-0.535 0.72,-1.2 0.72,-1.93 C 0.197,0.792 0.159,0.384 0,0"
             style="fill:#7b6fd3;fill-opacity:1;fill-rule:nonzero;stroke:none"
             id="path44" />
        </g>
        <g
           id="g46"
           transform="translate(305.3726,284.2321)">
          <path
             d="M 0,0 C -0.719,-0.413 -1.461,-0.785 -2.219,-1.122 1.44,0.59 4.577,3.231 6.88,6.502 c 0.219,0.313 0.433,0.631 0.642,0.96 0,0.005 0,0.005 0.005,0.01 0.151,0.365 0.234,0.766 0.234,1.189 0,1.064 -0.538,2.003 -1.357,2.558 0.281,-0.17 0.529,-0.383 0.745,-0.628 -0.577,0.738 -1.463,1.222 -2.469,1.222 -0.814,0 -1.584,-0.307 -2.167,-0.863 L 2.502,10.937 C 2.27,10.562 2.024,10.202 1.77,9.868 -1.403,5.591 -6.473,3.037 -11.792,3.037 c -8.387,0 -15.346,6.156 -16.644,14.183 1.67,1.747 3.885,4.501 7.067,8.833 7.134,9.711 -8.76,9.884 -11.747,9.834 -2.986,0.05 -18.88,-0.123 -11.746,-9.834 3.415,-4.648 5.716,-7.481 7.424,-9.199 -1.447,-7.848 -8.328,-13.817 -16.588,-13.817 -5.319,0 -10.389,2.554 -13.562,6.831 -0.253,0.334 -0.5,0.694 -0.732,1.069 l -0.01,0.013 c -0.584,0.556 -1.354,0.863 -2.168,0.863 -1.735,0 -3.146,-1.414 -3.146,-3.152 0,-0.422 0.08,-0.83 0.239,-1.214 l 0.011,-0.02 c 0.199,-0.315 0.41,-0.63 0.643,-0.962 4.326,-6.146 11.39,-9.815 18.897,-9.815 9.265,0 17.269,5.485 20.945,13.376 3.676,-7.891 11.68,-13.376 20.945,-13.376 4.273,0 8.401,1.192 11.964,3.35"
             style="fill:#7b6fd3;fill-opacity:1;fill-rule:nonzero;stroke:none"
             id="path48" />
        </g>
        <g
           id="g50"
           transform="translate(259.2409,209.9414)">
          <path
             d="m 0,0 c -2.138,3.4 -4.439,6.326 -6.674,8.894 -2.244,2.56 -4.433,4.753 -6.436,6.617 -2.007,1.861 -3.824,3.395 -5.361,4.609 -1.531,1.22 -2.78,2.119 -3.641,2.717 -0.863,0.597 -1.34,0.892 -1.34,0.892 0,0 1.257,-1.828 3.455,-5.028 1.079,-1.599 2.381,-3.535 3.819,-5.769 1.434,-2.236 3.02,-4.76 4.619,-7.549 1.601,-2.783 3.231,-5.829 4.667,-9.078 1.436,-3.236 2.67,-6.722 3.213,-10.139 0.069,-0.427 0.108,-0.849 0.158,-1.271 0.021,-0.416 0.071,-0.839 0.074,-1.245 0.049,-0.825 -0.007,-1.614 -0.088,-2.38 -0.093,-0.762 -0.272,-1.476 -0.485,-2.161 -0.243,-0.669 -0.508,-1.315 -0.863,-1.917 -0.722,-1.2 -1.714,-2.271 -3,-3.251 -1.28,-0.976 -2.83,-1.826 -4.535,-2.529 l -0.316,-0.137 -0.079,-0.035 -0.039,-0.018 c 0.018,0.007 -0.012,-0.005 -0.026,-0.011 l -0.091,-0.035 -0.768,-0.294 -0.385,-0.147 -0.192,-0.074 -0.151,-0.048 -0.593,-0.191 c -0.377,-0.137 -0.83,-0.248 -1.262,-0.368 -0.435,-0.134 -0.869,-0.202 -1.301,-0.303 -1.732,-0.344 -3.428,-0.506 -5.079,-0.397 -1.651,0.1 -3.252,0.436 -4.808,0.989 -1.559,0.543 -3.041,1.365 -4.478,2.302 -2.854,1.919 -5.387,4.495 -7.572,7.205 -1.105,1.353 -2.103,2.76 -3.051,4.153 -0.955,1.392 -1.812,2.796 -2.627,4.163 -1.623,2.739 -2.997,5.366 -4.169,7.734 -1.174,2.369 -2.141,4.484 -2.929,6.241 -1.561,3.517 -2.403,5.598 -2.403,5.598 0,0 -0.013,-0.561 0.026,-1.61 0.038,-1.049 0.13,-2.588 0.355,-4.537 0.219,-1.951 0.576,-4.312 1.141,-7.004 0.567,-2.69 1.36,-5.707 2.49,-8.952 1.143,-3.238 2.623,-6.708 4.689,-10.224 2.087,-3.488 4.75,-7.086 8.474,-10.146 1.849,-1.533 3.976,-2.902 6.349,-3.944 1.174,-0.543 2.426,-0.959 3.695,-1.333 1.285,-0.317 2.597,-0.588 3.925,-0.711 2.654,-0.28 5.35,-0.184 7.908,0.317 0.636,0.132 1.285,0.241 1.903,0.413 0.625,0.161 1.239,0.307 1.9,0.527 l 0.974,0.309 0.24,0.078 0.193,0.071 0.386,0.141 0.773,0.284 0.193,0.071 0.336,0.137 0.44,0.189 c 2.334,1.006 4.667,2.284 6.841,3.996 0.546,0.414 1.065,0.906 1.587,1.367 l 0.742,0.769 c 0.249,0.251 0.488,0.518 0.715,0.802 0.948,1.078 1.745,2.326 2.444,3.603 0.679,1.297 1.2,2.664 1.576,4.045 0.333,1.386 0.545,2.773 0.608,4.125 0.124,2.702 -0.215,5.246 -0.826,7.559 C 4.139,-7.274 2.116,-3.406 0,0"
             style="fill:#7b6fd3;fill-opacity:1;fill-rule:nonzero;stroke:none"
             id="path52" />
        </g>
        <g
           id="g54"
           transform="translate(339.5524,212.082)">
          <path
             d="m 0,0 c -0.788,-1.756 -1.755,-3.871 -2.929,-6.24 -1.172,-2.369 -2.546,-4.996 -4.169,-7.734 -0.815,-1.368 -1.672,-2.772 -2.627,-4.163 -0.948,-1.394 -1.946,-2.801 -3.051,-4.153 -2.185,-2.711 -4.718,-5.286 -7.572,-7.206 -1.437,-0.937 -2.919,-1.758 -4.478,-2.301 -1.556,-0.553 -3.157,-0.889 -4.808,-0.989 -1.651,-0.11 -3.347,0.053 -5.078,0.396 -0.433,0.101 -0.866,0.169 -1.301,0.303 -0.433,0.12 -0.885,0.231 -1.263,0.368 l -0.593,0.192 -0.151,0.048 -0.192,0.073 -0.385,0.147 -0.768,0.295 -0.091,0.034 c -0.014,0.006 -0.044,0.018 -0.026,0.012 l -0.039,0.017 -0.079,0.035 -0.316,0.138 c -1.705,0.703 -3.255,1.552 -4.534,2.529 -1.287,0.979 -2.278,2.05 -3.001,3.25 -0.355,0.602 -0.62,1.248 -0.863,1.917 -0.213,0.685 -0.392,1.399 -0.485,2.161 -0.081,0.766 -0.137,1.555 -0.088,2.381 0.003,0.405 0.054,0.828 0.074,1.245 0.05,0.422 0.089,0.844 0.158,1.27 0.543,3.418 1.777,6.904 3.213,10.139 1.436,3.249 3.066,6.295 4.667,9.079 1.599,2.788 3.185,5.313 4.619,7.548 1.438,2.235 2.74,4.171 3.819,5.77 2.199,3.199 3.455,5.028 3.455,5.028 0,0 -0.477,-0.296 -1.339,-0.893 -0.862,-0.598 -2.111,-1.497 -3.642,-2.716 -1.536,-1.214 -3.354,-2.749 -5.361,-4.609 -2.003,-1.865 -4.192,-4.057 -6.436,-6.618 -2.235,-2.567 -4.536,-5.494 -6.674,-8.894 -2.116,-3.405 -4.139,-7.274 -5.34,-11.918 -0.611,-2.313 -0.95,-4.858 -0.826,-7.56 0.063,-1.351 0.275,-2.739 0.608,-4.125 0.376,-1.381 0.897,-2.747 1.576,-4.045 0.699,-1.276 1.497,-2.525 2.444,-3.603 0.227,-0.284 0.466,-0.55 0.715,-0.802 l 0.743,-0.769 c 0.521,-0.461 1.04,-0.953 1.586,-1.367 2.174,-1.711 4.507,-2.99 6.841,-3.996 l 0.44,-0.189 0.336,-0.137 0.193,-0.071 0.773,-0.283 0.386,-0.142 0.193,-0.071 0.241,-0.078 0.973,-0.309 c 0.661,-0.219 1.275,-0.366 1.901,-0.527 0.617,-0.172 1.266,-0.281 1.902,-0.412 2.559,-0.501 5.254,-0.597 7.908,-0.318 1.328,0.123 2.641,0.394 3.925,0.711 1.269,0.374 2.521,0.79 3.695,1.333 2.374,1.042 4.5,2.411 6.35,3.945 3.724,3.059 6.386,6.657 8.473,10.146 2.066,3.516 3.546,6.985 4.689,10.224 1.13,3.244 1.923,6.261 2.491,8.952 0.564,2.692 0.922,5.052 1.141,7.003 0.224,1.95 0.316,3.488 0.355,4.537 0.039,1.05 0.025,1.611 0.025,1.611 C 2.403,5.599 1.561,3.518 0,0"
             style="fill:#7b6fd3;fill-opacity:1;fill-rule:nonzero;stroke:none"
             id="path56" />
        </g>
        <g
           id="g58"
           transform="translate(477.3651,264.8336)">
          <path
             d="m 0,0 -0.04,-0.134 c -2.334,-8.195 -7.178,-23.156 -13.166,-37.565 -2.871,6.481 -7.782,9.164 -11.11,10.263 7.833,32.272 14.304,49.062 18.428,57.528 2.292,4.704 3.985,7.139 5.001,8.354 0.308,0.368 0.53,0.595 0.663,0.721 l 0.494,0.224 0.705,0.767 c 3.946,4.288 9.716,9.173 14.791,8.085 3.786,-0.811 6.842,-4.742 8.798,-8.217 C 8.667,27.072 0.39,1.241 0,0 m -116.285,-80.801 c -21.163,-4.684 -39.179,-16.581 -53.547,-35.361 -11.312,-14.784 -20.367,-33.871 -26.915,-56.673 -3.01,-10.481 -5.207,-20.727 -6.814,-30.125 -1.606,9.398 -3.804,19.644 -6.813,30.125 -6.548,22.802 -15.603,41.889 -26.915,56.673 -14.368,18.78 -32.384,30.677 -53.547,35.361 -1.51,0.457 -19.072,6.074 -36.069,24.013 0.627,8.789 1.199,17.256 1.577,22.941 0.161,-0.053 0.309,-0.105 0.474,-0.159 1,-0.338 2.093,-0.659 3.24,-1.012 1.159,-0.319 2.364,-0.69 3.632,-0.999 0.63,-0.16 1.271,-0.324 1.919,-0.489 0.652,-0.149 1.312,-0.299 1.976,-0.451 1.323,-0.316 2.684,-0.57 4.035,-0.836 1.346,-0.281 2.716,-0.466 4.044,-0.697 1.332,-0.22 2.657,-0.364 3.924,-0.54 1.268,-0.173 2.509,-0.257 3.671,-0.38 1.162,-0.129 2.27,-0.179 3.287,-0.241 1.019,-0.052 1.944,-0.134 2.771,-0.145 0.826,-0.017 1.545,-0.031 2.137,-0.043 1.18,-0.023 1.854,-0.037 1.854,-0.037 0,0 -0.652,0.175 -1.792,0.481 -0.568,0.152 -1.258,0.337 -2.049,0.55 -0.79,0.206 -1.668,0.507 -2.629,0.797 -0.958,0.3 -1.998,0.606 -3.078,1.004 -1.081,0.392 -2.227,0.758 -3.389,1.22 -1.16,0.464 -2.366,0.902 -3.566,1.419 -1.197,0.528 -2.423,1.01 -3.616,1.584 -1.197,0.56 -2.394,1.102 -3.546,1.698 -0.577,0.291 -1.149,0.579 -1.715,0.864 -0.557,0.299 -1.107,0.594 -1.649,0.884 -1.086,0.566 -2.102,1.179 -3.077,1.724 -0.958,0.576 -1.869,1.106 -2.684,1.628 -0.822,0.514 -1.563,0.994 -2.208,1.43 -0.652,0.427 -1.193,0.82 -1.644,1.133 -0.439,0.318 -0.791,0.571 -0.972,0.721 -0.225,0.172 -0.344,0.264 -0.344,0.264 l -0.136,-0.231 -0.502,0.373 c -25.323,18.836 -40.468,43.037 -45.013,71.933 -3.418,21.726 0.757,38.144 0.801,38.316 13.461,51.647 45.439,87.207 95.045,105.694 37.065,13.812 70.74,12.461 71.639,12.421 l 0.461,-0.027 0.446,0.027 c 1.03,0.044 34.645,1.365 71.636,-12.42 49.605,-18.485 81.581,-54.046 95.042,-105.703 0.043,-0.164 4.217,-16.581 0.8,-38.306 -4.544,-28.894 -19.687,-53.095 -45.009,-71.931 l -2.273,-1.691 0.026,-0.414 c -0.303,-0.212 -0.629,-0.438 -1,-0.681 -0.644,-0.436 -1.386,-0.915 -2.207,-1.429 -0.815,-0.522 -1.727,-1.052 -2.685,-1.629 -0.975,-0.545 -1.99,-1.158 -3.077,-1.723 -0.541,-0.291 -1.092,-0.586 -1.649,-0.885 -0.565,-0.284 -1.138,-0.573 -1.715,-0.863 -1.151,-0.596 -2.348,-1.139 -3.546,-1.698 -1.192,-0.575 -2.419,-1.057 -3.616,-1.584 -1.2,-0.517 -2.405,-0.955 -3.566,-1.42 -1.161,-0.462 -2.308,-0.827 -3.389,-1.219 -1.08,-0.398 -2.119,-0.705 -3.078,-1.005 -0.961,-0.29 -1.839,-0.59 -2.629,-0.797 -0.791,-0.212 -1.48,-0.397 -2.048,-0.55 -1.141,-0.305 -1.793,-0.48 -1.793,-0.48 0,0 0.675,0.013 1.854,0.036 0.593,0.012 1.312,0.027 2.137,0.044 0.828,0.011 1.753,0.092 2.772,0.144 1.017,0.062 2.125,0.113 3.286,0.242 1.163,0.122 2.404,0.207 3.672,0.38 1.267,0.176 2.592,0.319 3.923,0.539 1.328,0.231 2.699,0.416 4.045,0.697 1.35,0.267 2.711,0.52 4.034,0.836 0.665,0.152 1.325,0.303 1.976,0.452 0.649,0.165 1.29,0.328 1.92,0.489 1.268,0.308 2.473,0.68 3.632,0.999 1.147,0.353 2.24,0.673 3.239,1.012 0.058,0.019 0.108,0.036 0.165,0.055 0.391,-5.878 0.971,-14.441 1.602,-23.241 -16.717,-17.211 -33.701,-22.639 -35.185,-23.088 m -184.588,274.776 c -5.128,-2.692 -10.058,-5.604 -14.774,-8.737 0.77,4.929 1.99,10.427 3.844,14.694 2.998,-1.089 7.336,-3.013 10.93,-5.957 m -22.423,38.27 c 7.56,-1.989 26.266,-8.553 46.072,-27.945 -0.729,-0.261 -1.456,-0.515 -2.188,-0.786 -4.074,-1.509 -8.042,-3.144 -11.913,-4.889 -8.232,8.837 -21.197,11.979 -21.793,12.119 l -3.406,0.802 -1.905,-2.936 c -6.033,-9.302 -7.709,-25.494 -8.128,-31.312 -4.297,-3.416 -8.39,-7.032 -12.26,-10.855 -0.506,-0.5 -0.991,-1.019 -1.49,-1.525 0.393,13.05 3.338,37.067 17.011,67.327 m 227.997,-45.149 c -4.296,2.725 -8.758,5.277 -13.383,7.649 3.349,2.513 7.144,4.197 9.871,5.187 1.624,-3.737 2.758,-8.419 3.512,-12.836 m 8.18,45.15 c 12.865,-28.471 16.229,-51.403 16.91,-64.886 -4.393,4.264 -9.06,8.271 -13.989,12.018 -0.58,6.966 -2.376,20.878 -7.794,29.232 l -1.91,2.936 -3.419,-0.802 c -0.579,-0.136 -12.851,-3.106 -21.102,-11.377 -3.341,1.466 -6.748,2.856 -10.237,4.149 -1.309,0.484 -2.611,0.948 -3.908,1.397 19.581,18.931 37.981,25.369 45.449,27.333 M -407.081,-0.134 -407.121,0 c -0.39,1.241 -8.667,27.072 -24.565,40.026 1.957,3.475 5.013,7.406 8.799,8.217 5.075,1.088 10.845,-3.797 14.791,-8.085 l 0.705,-0.767 0.493,-0.224 c 0.134,-0.126 0.356,-0.353 0.664,-0.721 1.016,-1.215 2.709,-3.65 5,-8.354 4.125,-8.466 10.595,-25.256 18.429,-57.528 -3.328,-1.099 -8.239,-3.782 -11.111,-10.263 -5.988,14.409 -10.832,29.37 -13.165,37.565 M 60.93,39.529 c -2.343,4.184 -5.718,5.528 -7.296,5.942 -6.884,2.594 -13.689,2.547 -20.261,-0.123 -2.879,5.06 -7.862,11.307 -15.457,12.934 -7.741,1.658 -15.83,-1.94 -24.05,-10.693 -2.091,-1.517 -5.108,-5.046 -8.983,-13.001 -6.362,-13.059 -12.932,-33.608 -19.541,-61.107 -4.953,-0.532 -10.4,-2.281 -16.161,-5.231 -7.21,-3.692 -14.337,-9.017 -20.574,-15.308 -0.538,7.761 -0.984,14.488 -1.221,18.088 32.77,25.373 43.603,55.992 46.887,77.429 3.641,23.773 -0.897,41.368 -1.087,42.087 -6.673,25.609 -17.897,47.772 -33.399,66.095 0.613,10.604 0.21,41.578 -19.568,83.435 l -1.554,3.289 -3.606,-0.486 c -1.209,-0.162 -29.114,-4.235 -58.308,-34.593 -32.142,9.193 -58.276,8.277 -60.782,8.163 -2.146,0.101 -29.394,1.135 -62.627,-8.703 -29.378,30.84 -57.599,34.97 -58.815,35.133 l -3.606,0.486 -1.554,-3.289 c -21.767,-46.066 -20.066,-78.952 -19.371,-86.008 -14.401,-17.811 -24.894,-39.101 -31.254,-63.504 -0.195,-0.737 -4.733,-18.334 -1.091,-42.107 3.284,-21.439 14.119,-52.06 46.891,-77.432 -0.227,-3.461 -0.649,-9.812 -1.159,-17.192 -6.02,5.904 -12.817,10.9 -19.685,14.417 -5.761,2.95 -11.209,4.699 -16.162,5.231 -6.609,27.499 -13.178,48.048 -19.54,61.107 -3.875,7.955 -6.892,11.484 -8.983,13.001 -8.221,8.753 -16.31,12.351 -24.05,10.693 -7.596,-1.627 -12.578,-7.874 -15.457,-12.934 -6.573,2.67 -13.377,2.717 -20.262,0.123 -1.577,-0.414 -4.952,-1.758 -7.296,-5.942 -3.998,-7.139 -2.627,-18.861 4.074,-34.84 13.061,-31.146 23.805,-69.833 23.917,-70.236 0.216,-0.775 5.457,-19.235 18.465,-41.739 12.06,-20.864 33.355,-49.194 66.314,-65.674 26.689,-13.345 39.567,-21.526 45.929,-29.182 5.917,-7.119 6.276,-14.062 6.927,-26.665 0.165,-3.2 0.357,-6.797 0.662,-10.731 l -0.062,-0.011 c 0,0 -0.342,-8.042 5.647,-7.529 3.889,0.334 4.602,4.13 4.625,6.751 l 0.148,0.013 c -0.375,4.428 -0.583,8.47 -0.767,12.036 -0.689,13.326 -1.186,22.954 -9.284,32.698 -7.449,8.963 -20.793,17.582 -49.234,31.803 -30.588,15.294 -50.53,41.822 -61.874,61.383 -12.422,21.42 -17.56,39.436 -17.605,39.597 -0.109,0.393 -11.021,39.695 -24.34,71.456 -7.04,16.787 -5.697,23.377 -4.794,25.431 0.441,1.003 0.943,1.338 1.133,1.435 l 0.265,0.041 0.527,0.205 c 4.919,1.917 9.552,1.776 14.162,-0.432 16.181,-7.749 25.82,-36.93 26.285,-38.365 0.397,-1.388 4.796,-16.602 11.496,-33.572 9.499,-24.057 18.752,-39.253 27.503,-45.166 17.463,-11.8 38.944,-34.324 41.041,-36.539 l -0.011,-0.017 c 0,0 0.033,-0.023 0.081,-0.058 0.061,-0.064 0.102,-0.108 0.11,-0.116 l 0.025,0.023 c 0.953,-0.635 4.906,-2.953 8.34,-0.191 0,0 2.178,3.018 -0.964,7.107 l 0.089,0.083 c -0.959,1.023 -23.715,25.209 -42.963,38.215 -4.82,3.256 -9.804,10.691 -14.479,19.767 0.097,2.332 0.351,4.538 0.551,6.005 l 0.254,-0.022 c 0.76,8.583 4.987,9.918 6.376,10.357 9.737,3.076 27.999,-6.69 40.709,-21.769 20.975,-24.886 44.318,-31.539 45.301,-31.81 l 0.264,-0.069 c 34.366,-7.536 58.896,-36.022 72.908,-84.65 9.632,-33.429 10.7,-65.453 10.817,-71.713 l -0.03,-0.002 c 0,0 -0.256,-7.015 4.706,-6.93 0.453,0.008 0.86,0.053 1.247,0.116 0.387,-0.063 0.795,-0.108 1.248,-0.116 4.962,-0.085 4.705,6.93 4.705,6.93 l -0.03,0.002 c 0.117,6.26 1.185,38.284 10.818,71.713 14.012,48.628 38.542,77.114 72.908,84.65 l 0.264,0.069 c 0.983,0.271 24.325,6.924 45.301,31.81 12.709,15.079 30.971,24.845 40.708,21.769 1.389,-0.439 5.616,-1.774 6.377,-10.357 l 0.253,0.022 c 0.201,-1.467 0.454,-3.673 0.552,-6.005 -4.676,-9.076 -9.659,-16.511 -14.479,-19.767 -19.249,-13.006 -42.004,-37.192 -42.963,-38.215 l 0.088,-0.083 c -3.142,-4.089 -0.963,-7.107 -0.963,-7.107 3.434,-2.762 7.387,-0.444 8.339,0.191 l 0.025,-0.023 c 0.008,0.008 0.049,0.052 0.11,0.116 0.049,0.035 0.081,0.058 0.081,0.058 l -0.011,0.017 c 2.098,2.215 23.579,24.739 41.042,36.539 8.75,5.913 18.004,21.109 27.502,45.166 6.7,16.97 11.1,32.184 11.497,33.572 0.464,1.435 10.104,30.616 26.284,38.365 4.611,2.208 9.244,2.349 14.163,0.432 l 0.526,-0.205 0.266,-0.041 c 0.189,-0.097 0.691,-0.432 1.132,-1.435 0.904,-2.054 2.246,-8.644 -4.793,-25.431 -13.319,-31.761 -24.232,-71.063 -24.34,-71.456 -0.046,-0.161 -5.184,-18.177 -17.605,-39.597 -11.344,-19.561 -31.287,-46.089 -61.874,-61.383 -28.442,-14.221 -41.785,-22.84 -49.234,-31.803 -8.099,-9.744 -8.596,-19.372 -9.284,-32.698 -0.184,-3.566 -0.393,-7.608 -0.767,-12.036 l 0.148,-0.013 c 0.022,-2.621 0.736,-6.417 4.625,-6.751 5.988,-0.513 5.646,7.529 5.646,7.529 l -0.062,0.011 c 0.306,3.934 0.498,7.531 0.663,10.731 0.651,12.603 1.009,19.546 6.926,26.665 6.363,7.656 19.24,15.837 45.93,29.182 32.958,16.48 54.253,44.81 66.313,65.674 13.008,22.504 18.249,40.964 18.466,41.739 0.111,0.403 10.855,39.09 23.916,70.236 6.701,15.979 8.072,27.701 4.074,34.84"
             style="fill:#7b6fd3;fill-opacity:1;fill-rule:nonzero;stroke:none"
             id="path60" />
        </g>
        <g
           id="g62"
           transform="translate(47.1663,369.5651)">
          <path
             d="m 0,0 c 8.12,-1.069 18.492,-0.408 24.086,0.542 1.969,5.321 4.539,15.392 4.993,23.569 0.334,6.015 0.091,14.257 -4.845,19.525 -4.994,5.332 -13.822,6.409 -20.52,0.289 -5.348,-4.888 -4.575,-13.296 -4.575,-13.296 0,0 -8.119,2.317 -13.914,-2.034 C -22.029,23.146 -22.606,14.271 -18.291,8.377 -14.027,2.552 -5.972,0.786 0,0"
             style="fill:#7b6fd3;fill-opacity:1;fill-rule:nonzero;stroke:none"
             id="path64" />
        </g>
      </g>
    </g>
  </g>
</svg>
