<?xml version="1.0" encoding="UTF-8" standalone="no"?>
<!-- Created with Inkscape (http://www.inkscape.org/) -->

<svg
   version="1.1"
   id="svg2"
   width="1333.3333"
   height="686.66669"
   viewBox="0 0 1333.3333 686.66669"
   sodipodi:docname="White Logo.ai"
   xmlns:inkscape="http://www.inkscape.org/namespaces/inkscape"
   xmlns:sodipodi="http://sodipodi.sourceforge.net/DTD/sodipodi-0.dtd"
   xmlns="http://www.w3.org/2000/svg"
   xmlns:svg="http://www.w3.org/2000/svg">
  <defs
     id="defs6">
    <clipPath
       clipPathUnits="userSpaceOnUse"
       id="clipPath16">
      <path
         d="M 0,515 H 1000 V 0 H 0 Z"
         id="path14" />
    </clipPath>
    <clipPath
       clipPathUnits="userSpaceOnUse"
       id="clipPath100">
      <path
         d="M 0,515 H 1000 V 0 H 0 Z"
         id="path98" />
    </clipPath>
    <clipPath
       clipPathUnits="userSpaceOnUse"
       id="clipPath136">
      <path
         d="M 0,515 H 1000 V 0 H 0 Z"
         id="path134" />
    </clipPath>
    <clipPath
       clipPathUnits="userSpaceOnUse"
       id="clipPath172">
      <path
         d="M 0,515 H 1000 V 0 H 0 Z"
         id="path170" />
    </clipPath>
    <clipPath
       clipPathUnits="userSpaceOnUse"
       id="clipPath212">
      <path
         d="M 0,515 H 1000 V 0 H 0 Z"
         id="path210" />
    </clipPath>
  </defs>
  <sodipodi:namedview
     id="namedview4"
     pagecolor="#ffffff"
     bordercolor="#000000"
     borderopacity="0.25"
     inkscape:showpageshadow="2"
     inkscape:pageopacity="0.0"
     inkscape:pagecheckerboard="0"
     inkscape:deskcolor="#d1d1d1" />
  <g
     id="g8"
     inkscape:groupmode="layer"
     inkscape:label="White Logo"
     transform="matrix(1.3333333,0,0,-1.3333333,0,686.66667)">
    <g
       id="g10">
      <g
         id="g12"
         clip-path="url(#clipPath16)">
        <g
           id="g18"
           transform="translate(181.0204,334.5764)">
          <path
             d="m 0,0 c -2.022,0 -3.668,-1.646 -3.668,-3.668 0,-2.022 1.646,-3.668 3.668,-3.668 2.022,0 3.668,1.646 3.668,3.668 C 3.668,-1.646 2.022,0 0,0"
             style="fill:#ffffff;fill-opacity:1;fill-rule:nonzero;stroke:none"
             id="path20" />
        </g>
        <g
           id="g22"
           transform="translate(312.8694,304.541)">
          <path
             d="m 0,0 c -1.558,-1.683 -3.372,-3.126 -5.38,-4.268 0.303,0.164 0.619,0.305 0.915,0.483 1.075,0.677 2.082,1.462 3.033,2.315 0.5,0.464 0.977,0.955 1.432,1.47"
             style="fill:#ffffff;fill-opacity:1;fill-rule:nonzero;stroke:none"
             id="path24" />
        </g>
        <g
           id="g26"
           transform="translate(213.0616,345.7064)">
          <path
             d="m 0,0 c -6.114,0 -11.088,-5.201 -11.088,-11.594 0,-6.392 4.974,-11.594 11.088,-11.594 6.114,0 11.088,5.202 11.088,11.594 C 11.088,-5.201 6.114,0 0,0"
             style="fill:#ffffff;fill-opacity:1;fill-rule:nonzero;stroke:none"
             id="path28" />
        </g>
        <g
           id="g30"
           transform="translate(315.3985,307.8043)">
          <path
             d="m 0,0 -0.023,0.01 c -0.004,-0.008 -0.005,-0.018 -0.008,-0.026 -0.005,-0.005 -0.005,-0.005 -0.005,-0.01 -0.161,-0.253 -0.328,-0.497 -0.495,-0.74 0.092,0.104 0.19,0.207 0.282,0.308 0.066,0.099 0.138,0.202 0.2,0.3 0.022,0.05 0.049,0.1 0.049,0.15 z"
             style="fill:#ffffff;fill-opacity:1;fill-rule:nonzero;stroke:none"
             id="path32" />
        </g>
        <g
           id="g34"
           transform="translate(360.0953,475.1322)">
          <path
             d="m 0,0 c 7.999,8.044 19.898,10.931 20.46,11.063 l 3.297,0.778 1.844,-2.849 c 5.315,-8.194 7.216,-21.908 7.848,-28.588 4.673,-3.571 9.103,-7.384 13.277,-11.436 C 46.065,-17.949 42.802,4.301 30.319,31.926 23.073,30.02 5.22,23.774 -13.779,5.406 -12.52,4.969 -11.257,4.52 -9.987,4.05 -6.583,2.789 -3.259,1.431 0,0"
             style="fill:#ffffff;fill-opacity:1;fill-rule:nonzero;stroke:none"
             id="path36" />
        </g>
        <g
           id="g38"
           transform="translate(315.4481,309.8221)">
          <path
             d="M 0,0 C -0.028,0.106 -0.069,0.206 -0.11,0.307 -0.133,0.357 -0.153,0.409 -0.179,0.457 -0.106,0.312 -0.049,0.158 0,0"
             style="fill:#ffffff;fill-opacity:1;fill-rule:nonzero;stroke:none"
             id="path40" />
        </g>
        <g
           id="g42"
           transform="translate(369.6299,470.6029)">
          <path
             d="M 0,0 C 4.629,-2.379 9.086,-4.947 13.375,-7.691 12.567,-3.308 11.377,1.38 9.76,5.102 7.095,4.134 3.315,2.469 0,0"
             style="fill:#ffffff;fill-opacity:1;fill-rule:nonzero;stroke:none"
             id="path44" />
        </g>
        <g
           id="g46"
           transform="translate(158.0943,453.7432)">
          <path
             d="m 0,0 c 0.407,5.645 2.033,21.356 7.887,30.381 l 1.848,2.849 3.305,-0.778 c 0.578,-0.136 13.158,-3.184 21.145,-11.759 3.756,1.693 7.606,3.28 11.559,4.744 0.71,0.263 1.416,0.51 2.123,0.762 C 28.65,45.016 10.5,51.384 3.165,53.314 -10.102,23.953 -12.959,0.651 -13.341,-12.012 c 0.484,0.492 0.955,0.995 1.446,1.48 C -8.14,-6.823 -4.168,-3.314 0,0"
             style="fill:#ffffff;fill-opacity:1;fill-rule:nonzero;stroke:none"
             id="path48" />
        </g>
        <g
           id="g50"
           transform="translate(183.007,469.9207)">
          <path
             d="M 0,0 C -3.487,2.854 -7.689,4.728 -10.597,5.784 -12.396,1.644 -13.58,-3.691 -14.326,-8.473 -9.753,-5.435 -4.973,-2.611 0,0"
             style="fill:#ffffff;fill-opacity:1;fill-rule:nonzero;stroke:none"
             id="path52" />
        </g>
        <g
           id="g54"
           transform="translate(80.7863,319.0195)">
          <path
             d="m 0,0 c -0.299,0.357 -0.514,0.577 -0.643,0.699 l -0.479,0.218 -0.685,0.744 c -3.828,4.161 -9.427,8.901 -14.351,7.845 -3.673,-0.787 -6.639,-4.602 -8.537,-7.973 15.425,-12.568 23.456,-37.632 23.834,-38.836 l 0.039,-0.13 c 2.265,-7.953 6.969,-22.475 12.782,-36.458 2.788,6.289 7.545,8.898 10.774,9.963 C 15.133,-32.612 8.854,-16.32 4.852,-8.106 2.628,-3.541 0.986,-1.178 0,0"
             style="fill:#ffffff;fill-opacity:1;fill-rule:nonzero;stroke:none"
             id="path56" />
        </g>
        <g
           id="g58"
           transform="translate(325.2055,334.5764)">
          <path
             d="m 0,0 c -2.022,0 -3.668,-1.646 -3.668,-3.668 0,-2.022 1.646,-3.668 3.668,-3.668 2.022,0 3.668,1.646 3.668,3.668 C 3.668,-1.646 2.022,0 0,0"
             style="fill:#ffffff;fill-opacity:1;fill-rule:nonzero;stroke:none"
             id="path60" />
        </g>
        <g
           id="g62"
           transform="translate(347.4656,303.3785)">
          <path
             d="m 0,0 c -16.947,0 -30.734,13.787 -30.734,30.734 0,16.947 13.787,30.734 30.734,30.734 16.947,0 30.734,-13.787 30.734,-30.734 C 30.734,13.787 16.947,0 0,0 m -3.931,-68.975 c -0.037,-1.019 -0.127,-2.511 -0.344,-4.403 -0.213,-1.893 -0.56,-4.183 -1.108,-6.795 -0.55,-2.611 -1.32,-5.538 -2.416,-8.686 -1.109,-3.142 -2.545,-6.508 -4.55,-9.92 -2.025,-3.385 -4.608,-6.876 -8.221,-9.844 -1.795,-1.488 -3.858,-2.816 -6.161,-3.827 -1.139,-0.527 -2.353,-0.931 -3.585,-1.294 -1.246,-0.308 -2.519,-0.57 -3.808,-0.69 -2.575,-0.271 -5.191,-0.178 -7.673,0.308 -0.617,0.128 -1.247,0.234 -1.846,0.401 -0.607,0.156 -1.203,0.298 -1.844,0.511 l -0.945,0.3 -0.233,0.076 -0.187,0.068 -0.375,0.138 -0.75,0.275 -0.187,0.068 -0.326,0.133 -0.427,0.184 c -2.265,0.976 -4.528,2.217 -6.637,3.878 -0.531,0.401 -1.034,0.878 -1.54,1.325 l -0.72,0.746 c -0.242,0.245 -0.474,0.503 -0.694,0.779 -0.919,1.046 -1.693,2.257 -2.372,3.496 -0.658,1.259 -1.164,2.584 -1.528,3.925 -0.324,1.345 -0.529,2.691 -0.591,4.002 -0.12,2.622 0.209,5.09 0.802,7.335 1.165,4.506 3.128,8.259 5.181,11.564 2.075,3.299 4.307,6.138 6.476,8.629 2.177,2.485 4.301,4.612 6.244,6.421 1.948,1.805 3.711,3.294 5.202,4.472 1.485,1.183 2.698,2.056 3.533,2.636 0.837,0.579 1.3,0.866 1.3,0.866 0,0 -1.219,-1.774 -3.352,-4.879 -1.048,-1.551 -2.311,-3.429 -3.705,-5.598 -1.392,-2.169 -2.931,-4.618 -4.483,-7.324 -1.553,-2.7 -3.135,-5.656 -4.528,-8.808 -1.393,-3.14 -2.59,-6.522 -3.117,-9.838 -0.068,-0.414 -0.105,-0.823 -0.153,-1.233 -0.02,-0.404 -0.07,-0.814 -0.073,-1.208 -0.047,-0.8 0.007,-1.566 0.086,-2.309 0.09,-0.74 0.264,-1.433 0.47,-2.097 0.236,-0.649 0.493,-1.276 0.838,-1.86 0.701,-1.164 1.663,-2.204 2.911,-3.154 1.242,-0.947 2.745,-1.772 4.4,-2.454 l 0.307,-0.133 0.076,-0.034 0.038,-0.017 c -0.018,0.007 0.015,-0.007 0.028,-0.012 l 0.085,-0.033 0.746,-0.285 0.373,-0.143 0.186,-0.071 0.147,-0.047 0.576,-0.186 c 0.366,-0.133 0.805,-0.241 1.224,-0.357 0.422,-0.13 0.843,-0.196 1.263,-0.294 1.68,-0.333 3.325,-0.491 4.927,-0.385 1.602,0.097 3.156,0.424 4.666,0.96 1.512,0.527 2.95,1.324 4.345,2.233 2.768,1.862 5.226,4.362 7.346,6.991 1.072,1.312 2.041,2.678 2.961,4.03 0.926,1.35 1.758,2.713 2.548,4.039 1.575,2.657 2.908,5.206 4.045,7.504 1.139,2.299 2.078,4.351 2.842,6.055 1.515,3.413 2.331,5.432 2.331,5.432 0,0 0.014,-0.544 -0.024,-1.562 M -71.332,6.932 c -3.56,-7.675 -11.319,-13.022 -20.322,-13.022 -7.284,0 -14.138,3.559 -18.336,9.522 -0.226,0.323 -0.43,0.628 -0.624,0.934 l -0.01,0.019 c -0.154,0.373 -0.232,0.769 -0.232,1.178 0,1.687 1.369,3.058 3.053,3.058 0.789,0 1.536,-0.297 2.103,-0.837 l 0.01,-0.012 c 0.225,-0.364 0.464,-0.713 0.71,-1.037 3.079,-4.151 7.998,-6.628 13.159,-6.628 8.016,0 14.693,5.793 16.096,13.411 -1.659,1.667 -3.886,4.403 -7.205,8.921 -6.922,9.421 8.5,9.59 11.398,9.541 2.897,0.049 18.319,-0.12 11.397,-9.541 -3.089,-4.204 -5.237,-6.876 -6.857,-8.57 1.259,-7.789 8.011,-13.762 16.15,-13.762 5.16,0 10.079,2.477 13.158,6.627 0.246,0.325 0.485,0.674 0.71,1.038 l 0.01,0.012 c 0.567,0.54 1.314,0.837 2.103,0.837 1.059,0 1.993,-0.543 2.541,-1.366 -0.231,0.309 -0.52,0.572 -0.851,0.776 0.349,-0.24 0.633,-0.561 0.854,-0.924 -0.029,0.048 -0.055,0.101 -0.086,0.148 0.042,-0.056 0.071,-0.118 0.107,-0.177 0.029,-0.049 0.061,-0.094 0.087,-0.145 0.031,-0.059 0.056,-0.121 0.081,-0.183 0.065,-0.142 0.119,-0.289 0.163,-0.441 0.001,-0.003 0.001,-0.004 0.002,-0.007 0.068,-0.237 0.114,-0.483 0.114,-0.739 0,-0.409 -0.037,-0.805 -0.191,-1.178 l -0.01,-0.019 c -0.02,-0.032 -0.045,-0.067 -0.066,-0.099 -0.043,-0.099 -0.108,-0.198 -0.2,-0.299 -0.117,-0.177 -0.227,-0.349 -0.358,-0.536 -0.978,-1.389 -2.115,-2.628 -3.354,-3.74 -0.921,-0.855 -1.909,-1.641 -3.033,-2.315 -3.534,-2.228 -7.664,-3.467 -11.949,-3.467 -9.003,0 -16.762,5.347 -20.322,13.022 m -6.847,-100.753 c -0.061,-1.311 -0.267,-2.657 -0.59,-4.002 -0.365,-1.341 -0.87,-2.666 -1.529,-3.925 -0.678,-1.239 -1.452,-2.45 -2.372,-3.496 -0.22,-0.276 -0.451,-0.534 -0.693,-0.779 l -0.721,-0.746 c -0.506,-0.447 -1.009,-0.924 -1.539,-1.325 -2.109,-1.661 -4.372,-2.902 -6.638,-3.878 l -0.426,-0.184 -0.326,-0.133 -0.187,-0.068 -0.75,-0.275 -0.375,-0.138 -0.188,-0.068 -0.233,-0.076 -0.945,-0.3 c -0.641,-0.213 -1.236,-0.355 -1.843,-0.511 -0.6,-0.167 -1.23,-0.273 -1.846,-0.401 -2.483,-0.486 -5.098,-0.579 -7.673,-0.308 -1.289,0.12 -2.562,0.382 -3.808,0.69 -1.232,0.363 -2.446,0.767 -3.586,1.294 -2.303,1.011 -4.366,2.339 -6.16,3.827 -3.614,2.968 -6.197,6.459 -8.222,9.844 -2.004,3.412 -3.441,6.778 -4.549,9.92 -1.097,3.148 -1.866,6.075 -2.417,8.686 -0.548,2.612 -0.895,4.902 -1.107,6.795 -0.218,1.892 -0.307,3.384 -0.345,4.403 -0.037,1.018 -0.024,1.562 -0.024,1.562 0,0 0.816,-2.019 2.331,-5.432 0.765,-1.704 1.704,-3.756 2.842,-6.055 1.137,-2.298 2.47,-4.847 4.046,-7.504 0.79,-1.326 1.622,-2.689 2.548,-4.039 0.92,-1.352 1.888,-2.718 2.96,-4.03 2.12,-2.629 4.578,-5.129 7.347,-6.991 1.395,-0.909 2.832,-1.706 4.345,-2.233 1.51,-0.536 3.064,-0.863 4.665,-0.96 1.602,-0.106 3.248,0.052 4.928,0.385 0.42,0.098 0.84,0.164 1.262,0.294 0.42,0.116 0.859,0.224 1.225,0.357 l 0.576,0.186 0.146,0.047 0.187,0.071 0.373,0.143 0.745,0.285 0.086,0.033 c 0.014,0.006 0.046,0.019 0.027,0.012 l 0.039,0.017 0.076,0.034 0.307,0.133 c 1.654,0.682 3.158,1.507 4.399,2.454 1.248,0.95 2.211,1.99 2.911,3.154 0.345,0.584 0.602,1.211 0.838,1.86 0.206,0.664 0.381,1.357 0.471,2.097 0.078,0.743 0.133,1.509 0.085,2.309 -0.003,0.394 -0.052,0.804 -0.072,1.208 -0.048,0.41 -0.086,0.819 -0.154,1.233 -0.526,3.316 -1.724,6.698 -3.117,9.838 -1.393,3.152 -2.975,6.108 -4.528,8.808 -1.552,2.706 -3.09,5.155 -4.482,7.324 -1.395,2.169 -2.658,4.047 -3.705,5.598 -2.133,3.105 -3.352,4.879 -3.352,4.879 0,0 0.462,-0.287 1.299,-0.866 0.836,-0.58 2.048,-1.453 3.533,-2.636 1.491,-1.178 3.255,-2.667 5.202,-4.472 1.944,-1.809 4.067,-3.936 6.245,-6.421 2.168,-2.491 4.401,-5.33 6.475,-8.629 2.053,-3.305 4.016,-7.058 5.182,-11.564 0.592,-2.245 0.922,-4.713 0.801,-7.335 m -96.74,124.555 c 0,16.947 13.787,30.734 30.734,30.734 16.947,0 30.734,-13.787 30.734,-30.734 0,-16.947 -13.787,-30.734 -30.734,-30.734 -16.947,0 -30.734,13.787 -30.734,30.734 m 63.4,-26.3 c 0.193,-0.304 0.396,-0.608 0.621,-0.929 l -0.097,-0.08 c -0.265,0.269 -0.478,0.589 -0.635,0.949 z M 92.448,26.466 c 3.315,21.078 -0.735,37.008 -0.776,37.166 -13.061,50.122 -44.086,84.626 -92.217,102.561 -35.891,13.376 -68.506,12.094 -69.506,12.051 l -0.432,-0.027 -0.448,0.027 c -0.872,0.039 -33.546,1.349 -69.509,-12.052 -48.132,-17.937 -79.159,-52.44 -92.219,-102.551 -0.044,-0.167 -4.093,-16.098 -0.778,-37.177 4.41,-28.037 19.105,-51.519 43.675,-69.795 l 0.487,-0.362 0.132,0.225 c 0,0 0.116,-0.089 0.334,-0.257 0.176,-0.145 0.518,-0.391 0.943,-0.7 0.438,-0.303 0.962,-0.684 1.596,-1.099 0.625,-0.423 1.344,-0.888 2.141,-1.387 0.791,-0.507 1.676,-1.021 2.605,-1.58 0.946,-0.529 1.931,-1.123 2.986,-1.673 0.525,-0.281 1.059,-0.568 1.6,-0.857 0.548,-0.277 1.104,-0.556 1.663,-0.838 1.118,-0.578 2.279,-1.105 3.441,-1.648 1.157,-0.557 2.347,-1.025 3.508,-1.537 1.165,-0.501 2.334,-0.926 3.461,-1.377 1.127,-0.448 2.239,-0.803 3.288,-1.183 1.048,-0.386 2.056,-0.684 2.987,-0.975 0.932,-0.281 1.784,-0.573 2.55,-0.773 0.768,-0.206 1.437,-0.386 1.988,-0.534 1.106,-0.296 1.739,-0.466 1.739,-0.466 0,0 -0.654,0.013 -1.799,0.035 -0.575,0.012 -1.273,0.026 -2.073,0.042 -0.803,0.011 -1.701,0.09 -2.689,0.141 -0.987,0.06 -2.062,0.109 -3.189,0.234 -1.128,0.119 -2.332,0.201 -3.563,0.369 -1.229,0.171 -2.515,0.31 -3.807,0.523 -1.288,0.225 -2.617,0.404 -3.924,0.677 -1.31,0.258 -2.63,0.504 -3.914,0.81 -0.645,0.148 -1.285,0.294 -1.918,0.439 -0.629,0.16 -1.251,0.318 -1.862,0.474 -1.23,0.3 -2.399,0.66 -3.524,0.969 -1.113,0.343 -2.173,0.654 -3.143,0.982 -0.16,0.053 -0.304,0.103 -0.46,0.155 -0.367,-5.517 -0.922,-13.732 -1.531,-22.259 16.492,-17.406 33.532,-22.856 34.997,-23.3 20.534,-4.545 38.014,-16.088 51.955,-34.309 10.976,-14.345 19.762,-33.359 26.115,-55.484 2.922,-10.175 5.052,-20.177 6.611,-29.379 1.559,9.202 3.689,19.204 6.611,29.379 6.353,22.125 15.139,41.139 26.114,55.484 13.942,18.221 31.422,29.764 51.956,34.309 1.44,0.436 17.919,5.702 34.139,22.401 -0.612,8.539 -1.175,16.847 -1.554,22.551 -0.056,-0.018 -0.105,-0.035 -0.16,-0.053 -0.97,-0.329 -2.031,-0.64 -3.144,-0.983 -1.124,-0.309 -2.293,-0.669 -3.523,-0.968 -0.612,-0.156 -1.234,-0.315 -1.863,-0.475 -0.632,-0.145 -1.272,-0.291 -1.917,-0.438 -1.284,-0.307 -2.604,-0.553 -3.915,-0.811 -1.306,-0.273 -2.635,-0.452 -3.924,-0.677 -1.292,-0.213 -2.578,-0.352 -3.807,-0.523 -1.23,-0.168 -2.434,-0.25 -3.562,-0.369 -1.127,-0.125 -2.203,-0.174 -3.189,-0.234 -0.989,-0.051 -1.886,-0.13 -2.689,-0.141 -0.801,-0.016 -1.499,-0.03 -2.074,-0.041 -1.144,-0.023 -1.798,-0.036 -1.798,-0.036 0,0 0.632,0.17 1.739,0.466 0.551,0.148 1.22,0.328 1.987,0.534 0.767,0.2 1.619,0.492 2.551,0.773 0.93,0.291 1.938,0.589 2.987,0.975 1.048,0.38 2.161,0.735 3.288,1.183 1.126,0.451 2.296,0.876 3.46,1.377 1.161,0.512 2.351,0.98 3.508,1.537 1.162,0.543 2.324,1.07 3.441,1.648 0.56,0.282 1.115,0.561 1.664,0.838 0.54,0.29 1.074,0.576 1.6,0.858 1.054,0.549 2.04,1.143 2.985,1.672 0.93,0.559 1.814,1.073 2.605,1.58 0.797,0.499 1.517,0.964 2.142,1.387 0.36,0.236 0.676,0.455 0.97,0.661 l -0.026,0.401 2.207,1.641 c 24.568,18.276 39.261,41.758 43.67,69.793"
             style="fill:#ffffff;fill-opacity:1;fill-rule:nonzero;stroke:none"
             id="path64" />
        </g>
        <g
           id="g66"
           transform="translate(357.2467,345.7064)">
          <path
             d="m 0,0 c -6.114,0 -11.088,-5.201 -11.088,-11.594 0,-6.392 4.974,-11.594 11.088,-11.594 6.114,0 11.088,5.202 11.088,11.594 C 11.088,-5.201 6.114,0 0,0"
             style="fill:#ffffff;fill-opacity:1;fill-rule:nonzero;stroke:none"
             id="path68" />
        </g>
        <g
           id="g70"
           transform="translate(43.1982,411.079)">
          <path
             d="m 0,0 c 5.623,4.222 13.501,1.973 13.501,1.973 0,0 -0.75,8.159 4.439,12.902 6.499,5.938 15.064,4.893 19.91,-0.28 4.789,-5.112 5.024,-13.109 4.701,-18.945 -0.441,-7.934 -2.935,-17.706 -4.845,-22.869 -5.428,-0.922 -15.492,-1.562 -23.37,-0.525 -5.795,0.763 -13.61,2.476 -17.747,8.127 C -7.597,-13.897 -7.038,-5.286 0,0"
             style="fill:#ffffff;fill-opacity:1;fill-rule:nonzero;stroke:none"
             id="path72" />
        </g>
        <g
           id="g74"
           transform="translate(490.2404,328.5256)">
          <path
             d="m 0,0 c -4.924,1.056 -10.523,-3.684 -14.351,-7.845 l -0.684,-0.744 -0.479,-0.218 c -0.129,-0.122 -0.345,-0.342 -0.644,-0.699 -0.986,-1.178 -2.628,-3.541 -4.852,-8.106 -4.002,-8.214 -10.281,-24.506 -17.882,-55.822 3.229,-1.065 7.987,-3.674 10.774,-9.964 5.813,13.984 10.517,28.506 12.782,36.459 l 0.039,0.13 c 0.378,1.204 8.409,26.268 23.834,38.836 C 6.639,-4.602 3.673,-0.787 0,0"
             style="fill:#ffffff;fill-opacity:1;fill-rule:nonzero;stroke:none"
             id="path76" />
        </g>
        <g
           id="g78"
           transform="translate(313.5316,305.2999)">
          <path
             d="M 0,0 C -0.159,-0.188 -0.317,-0.379 -0.482,-0.562 -0.321,-0.376 -0.156,-0.192 0,0"
             style="fill:#ffffff;fill-opacity:1;fill-rule:nonzero;stroke:none"
             id="path80" />
        </g>
        <g
           id="g82"
           transform="translate(271.0014,54.6741)">
          <path
             d="m 0,0 c -1.034,13.465 -3.565,34.855 -9.807,56.51 -13.598,47.194 -37.4,74.998 -70.744,82.314 l -0.252,0.119 c -0.954,0.265 -23.603,6.759 -43.959,30.906 -12.326,14.631 -30.045,24.12 -39.494,21.138 -1.352,-0.437 -5.447,-1.723 -6.189,-10.046 l -0.252,0.027 c -0.185,-1.432 -0.437,-3.565 -0.53,-5.831 4.532,-8.8 9.37,-16.01 14.048,-19.177 18.673,-12.617 40.753,-36.088 41.68,-37.082 l -0.079,-0.079 c 3.035,-3.963 0.941,-6.892 0.941,-6.892 -3.34,-2.677 -7.17,-0.424 -8.098,0.186 l -0.026,-0.027 c 0,0.014 -0.04,0.053 -0.106,0.12 -0.04,0.026 -0.08,0.053 -0.08,0.053 l 0.013,0.013 c -2.04,2.16 -22.874,24.014 -39.824,35.451 -8.482,5.739 -17.468,20.489 -26.678,43.827 -6.508,16.474 -10.775,31.224 -11.159,32.576 -0.451,1.391 -9.807,29.7 -25.499,37.227 -4.479,2.147 -8.972,2.28 -13.743,0.411 l -0.517,-0.199 -0.252,-0.039 c -0.185,-0.093 -0.676,-0.411 -1.1,-1.392 -0.874,-1.988 -2.186,-8.376 4.652,-24.664 12.922,-30.826 23.511,-68.954 23.617,-69.339 0.039,-0.159 5.022,-17.639 17.083,-38.42 10.999,-18.978 30.349,-44.715 60.035,-59.558 27.593,-13.796 40.541,-22.159 47.763,-30.853 7.859,-9.462 8.336,-18.805 9.012,-31.727 0.146,-3.022 0.332,-6.414 0.61,-10.085 -0.013,-0.014 -0.013,-0.027 0,-0.04 0.053,-0.504 0.093,-1.034 0.132,-1.551 l -0.145,-0.013 c 0,-0.557 -0.04,-1.166 -0.133,-1.776 0.027,-16.566 10.139,-30.747 24.518,-36.763 4.744,-1.988 9.953,-3.088 15.413,-3.088 5.46,0 10.669,1.1 15.413,3.088 13.439,5.619 23.153,18.395 24.359,33.583 C 0.543,-8.654 0.358,-4.837 0,0"
             style="fill:#ffffff;fill-opacity:1;fill-rule:nonzero;stroke:none"
             id="path84" />
        </g>
        <g
           id="g86"
           transform="translate(284.9831,54.6741)">
          <path
             d="m 0,0 c 1.034,13.465 3.565,34.855 9.807,56.51 13.598,47.194 37.4,74.998 70.744,82.314 l 0.252,0.119 c 0.954,0.265 23.603,6.759 43.959,30.906 12.326,14.631 30.045,24.12 39.494,21.138 1.352,-0.437 5.447,-1.723 6.189,-10.046 l 0.252,0.027 c 0.185,-1.432 0.437,-3.565 0.53,-5.831 -4.532,-8.8 -9.37,-16.01 -14.048,-19.177 -18.673,-12.617 -40.753,-36.088 -41.68,-37.082 l 0.079,-0.079 c -3.035,-3.963 -0.941,-6.892 -0.941,-6.892 3.34,-2.677 7.17,-0.424 8.098,0.186 l 0.026,-0.027 c 0,0.014 0.04,0.053 0.106,0.12 0.04,0.026 0.08,0.053 0.08,0.053 l -0.013,0.013 c 2.04,2.16 22.874,24.014 39.824,35.451 8.482,5.739 17.468,20.489 26.678,43.827 6.508,16.474 10.775,31.224 11.159,32.576 0.451,1.391 9.807,29.7 25.499,37.227 4.479,2.147 8.972,2.28 13.743,0.411 l 0.517,-0.199 0.252,-0.039 c 0.185,-0.093 0.676,-0.411 1.1,-1.392 0.874,-1.988 2.186,-8.376 -4.652,-24.664 -12.922,-30.826 -23.511,-68.954 -23.617,-69.339 -0.039,-0.159 -5.022,-17.639 -17.083,-38.42 C 185.355,108.713 166.005,82.976 136.319,68.133 108.726,54.337 95.778,45.974 88.556,37.28 80.697,27.818 80.22,18.475 79.544,5.553 79.398,2.531 79.212,-0.861 78.934,-4.532 c 0.013,-0.014 0.013,-0.027 0,-0.04 -0.053,-0.504 -0.093,-1.034 -0.132,-1.551 l 0.145,-0.013 c 0,-0.557 0.04,-1.166 0.133,-1.776 -0.027,-16.566 -10.139,-30.747 -24.518,-36.763 -4.744,-1.988 -9.953,-3.088 -15.413,-3.088 -5.46,0 -10.669,1.1 -15.413,3.088 C 10.297,-39.056 0.583,-26.28 -0.623,-11.092 -0.543,-8.654 -0.358,-4.837 0,0"
             style="fill:#ffffff;fill-opacity:1;fill-rule:nonzero;stroke:none"
             id="path88" />
        </g>
      </g>
    </g>
    <text
       xml:space="preserve"
       transform="matrix(1,0,0,-1,622.0534,254.4355)"
       style="font-variant:normal;font-weight:normal;font-stretch:normal;font-size:116.427px;font-family:Cocon-Regular;-inkscape-font-specification:Cocon-Regular;writing-mode:lr-tb;fill:#ffffff;fill-opacity:1;fill-rule:nonzero;stroke:none"
       id="text92"><tspan
         x="0 70.904228 109.6163 156.76936 203.92241 268.88885"
         y="0"
         sodipodi:role="line"
         id="tspan90">Kitten</tspan></text>
    <g
       id="g94">
      <g
         id="g96"
         clip-path="url(#clipPath100)">
        <g
           id="g102"
           transform="translate(629.5898,334.1953)">
          <path
             d="m 0,0 v -68.958 c 0,-1.365 0.199,-2.692 0.598,-3.98 0.397,-1.289 1.003,-2.436 1.818,-3.439 0.815,-1.005 1.877,-1.819 3.184,-2.444 1.307,-0.626 2.927,-0.939 4.861,-0.939 h 5.287 v 40.306 c 3.94,-6.367 7.968,-12.469 12.08,-18.305 4.111,-5.837 8.612,-11.579 13.502,-17.225 1.401,-1.555 3.136,-2.796 5.201,-3.724 2.066,-0.929 4.066,-1.393 5.998,-1.393 3.259,0 5.609,0.616 7.049,1.848 1.441,1.231 2.502,3.287 3.184,6.168 -1.175,0.303 -2.227,0.691 -3.156,1.165 -0.928,0.474 -1.98,1.184 -3.154,2.132 -2.54,2.161 -4.899,4.5 -7.078,7.021 -2.18,2.52 -4.273,5.154 -6.282,7.902 -2.009,2.747 -3.95,5.523 -5.827,8.328 -1.876,2.805 -3.744,5.572 -5.6,8.301 2.009,2.842 4.415,6.054 7.221,9.635 2.803,3.582 5.636,7.116 8.499,10.603 2.86,3.486 5.58,6.708 8.157,9.664 2.577,2.957 4.643,5.211 6.196,6.765 V 0 H 50.767 C 49.212,0 47.915,-0.039 46.873,-0.114 45.83,-0.19 44.863,-0.408 43.974,-0.768 43.082,-1.128 42.229,-1.611 41.415,-2.217 40.6,-2.824 39.682,-3.715 38.658,-4.889 34.224,-9.551 30.187,-14.525 26.549,-19.812 22.911,-25.099 19.31,-30.377 15.748,-35.645 v 24.9 c 0,2.805 -0.815,5.296 -2.445,7.476 C 11.673,-1.09 8.944,0 5.117,0 Z"
             style="fill:none;stroke:#f2f2f2;stroke-width:1;stroke-linecap:butt;stroke-linejoin:miter;stroke-miterlimit:10;stroke-dasharray:none;stroke-opacity:1"
             id="path104" />
        </g>
        <g
           id="g106"
           transform="translate(730.5537,266.6582)">
          <path
             d="m 0,0 h -2.956 c -3.487,0 -5.95,0.577 -7.39,1.734 -1.441,1.156 -2.161,3.326 -2.161,6.509 v 29.391 c 0,3.941 -0.985,6.859 -2.956,8.755 -1.971,1.895 -4.699,2.842 -8.185,2.842 h -4.435 V 6.765 c 0,-6.367 1.61,-11.219 4.832,-14.554 3.221,-3.335 7.864,-5.002 13.928,-5.002 3.335,0 5.722,0.72 7.163,2.16 1.44,1.44 2.16,3.866 2.16,7.277 z m -13.928,70.664 c -1.819,1.78 -3.979,2.671 -6.48,2.671 -2.464,0 -4.596,-0.891 -6.396,-2.671 -1.8,-1.782 -2.7,-3.904 -2.7,-6.368 0,-2.501 0.9,-4.661 2.7,-6.481 1.8,-1.818 3.932,-2.728 6.396,-2.728 2.501,0 4.661,0.91 6.48,2.728 1.82,1.82 2.729,3.98 2.729,6.481 0,2.464 -0.909,4.586 -2.729,6.368 z"
             style="fill:none;stroke:#f2f2f2;stroke-width:1;stroke-linecap:butt;stroke-linejoin:miter;stroke-miterlimit:10;stroke-dasharray:none;stroke-opacity:1"
             id="path108" />
        </g>
        <g
           id="g110"
           transform="translate(739.7646,277.0049)">
          <path
             d="m 0,0 c 0,-7.353 1.923,-13.066 5.77,-17.14 3.846,-4.075 9.768,-6.112 17.765,-6.112 4.585,0 8.025,0.929 10.319,2.786 2.292,1.857 3.439,4.415 3.439,7.675 v 5.571 h -0.626 c -2.388,-1.478 -6.14,-2.217 -11.256,-2.217 -3.183,0 -5.628,0.861 -7.334,2.586 -1.705,1.725 -2.557,4.634 -2.557,8.727 v 24.559 h 12.45 c 3.183,0 5.533,0.833 7.049,2.501 1.515,1.668 2.274,3.316 2.274,4.946 v 6.424 H 15.52 v 14.212 h -3.639 c -1.25,0 -2.511,-0.408 -3.78,-1.222 C 6.83,52.48 5.646,51.448 4.548,50.198 3.714,49.174 3.003,48.255 2.416,47.44 1.827,46.625 1.364,45.754 1.022,44.826 0.682,43.896 0.426,42.873 0.256,41.756 0.085,40.637 0,39.301 0,37.748 Z"
             style="fill:none;stroke:#f2f2f2;stroke-width:1;stroke-linecap:butt;stroke-linejoin:miter;stroke-miterlimit:10;stroke-dasharray:none;stroke-opacity:1"
             id="path112" />
        </g>
        <g
           id="g114"
           transform="translate(786.8926,277.0049)">
          <path
             d="m 0,0 c 0,-7.353 1.923,-13.066 5.77,-17.14 3.846,-4.075 9.768,-6.112 17.765,-6.112 4.585,0 8.025,0.929 10.319,2.786 2.292,1.857 3.439,4.415 3.439,7.675 v 5.571 h -0.626 c -2.388,-1.478 -6.14,-2.217 -11.256,-2.217 -3.183,0 -5.628,0.861 -7.333,2.586 -1.706,1.725 -2.558,4.634 -2.558,8.727 v 24.559 h 12.45 c 3.183,0 5.533,0.833 7.049,2.501 1.515,1.668 2.274,3.316 2.274,4.946 v 6.424 H 15.52 v 14.212 h -3.639 c -1.25,0 -2.511,-0.408 -3.78,-1.222 C 6.83,52.48 5.646,51.448 4.548,50.198 3.714,49.174 3.003,48.255 2.416,47.44 1.827,46.625 1.364,45.754 1.022,44.826 0.682,43.896 0.426,42.873 0.256,41.756 0.085,40.637 0,39.301 0,37.748 Z"
             style="fill:none;stroke:#f2f2f2;stroke-width:1;stroke-linecap:butt;stroke-linejoin:miter;stroke-miterlimit:10;stroke-dasharray:none;stroke-opacity:1"
             id="path116" />
        </g>
        <g
           id="g118"
           transform="translate(870.9434,293.4624)">
          <path
             d="M 0,0 C -0.512,-0.777 -1.44,-1.402 -2.785,-1.876 -4.131,-2.35 -5.969,-2.7 -8.3,-2.928 c -2.331,-0.227 -5.372,-0.341 -9.124,-0.341 h -6.935 l 0.113,2.104 c 0.076,1.781 0.435,3.486 1.08,5.116 0.645,1.629 1.554,3.042 2.729,4.236 1.174,1.193 2.558,2.16 4.15,2.899 1.592,0.739 3.316,1.108 5.174,1.108 3.637,0 6.527,-0.777 8.669,-2.33 C -0.304,8.309 0.768,5.941 0.768,2.757 0.768,1.696 0.512,0.776 0,0 Z m 13.331,11.057 c -1.402,3.032 -3.268,5.59 -5.6,7.675 -2.33,2.084 -5.002,3.685 -8.015,4.804 -3.013,1.117 -6.15,1.677 -9.408,1.677 -4.511,0 -8.652,-0.787 -12.422,-2.359 -3.772,-1.574 -7.012,-3.838 -9.721,-6.794 -2.71,-2.956 -4.823,-6.547 -6.339,-10.773 -1.516,-4.226 -2.274,-8.954 -2.274,-14.184 0,-4.813 0.872,-9.152 2.615,-13.018 1.743,-3.866 4.055,-7.183 6.936,-9.949 2.879,-2.767 6.176,-4.888 9.891,-6.367 3.714,-1.478 7.524,-2.217 11.427,-2.217 4.244,0 7.826,0.369 10.745,1.109 2.918,0.739 5.268,1.752 7.049,3.041 1.781,1.288 3.042,2.785 3.78,4.491 0.739,1.705 1.109,3.562 1.109,5.571 v 4.889 h -0.569 c -2.501,-2.312 -5.514,-3.875 -9.039,-4.69 -3.524,-0.815 -6.916,-1.222 -10.176,-1.222 -4.661,0 -8.603,1.165 -11.824,3.496 -3.222,2.331 -5.136,5.467 -5.742,9.409 h 10.233 c 10.308,0 17.794,1.108 22.455,3.325 4.662,2.217 6.993,6.187 6.993,11.91 0,3.752 -0.702,7.144 -2.104,10.176 z"
             style="fill:none;stroke:#f2f2f2;stroke-width:1;stroke-linecap:butt;stroke-linejoin:miter;stroke-miterlimit:10;stroke-dasharray:none;stroke-opacity:1"
             id="path120" />
        </g>
        <g
           id="g122"
           transform="translate(953.6875,254.4355)">
          <path
             d="m 0,0 v 36.554 c 0,4.434 -0.72,8.376 -2.16,11.825 -1.441,3.448 -3.383,6.357 -5.827,8.726 -2.445,2.368 -5.297,4.15 -8.556,5.344 -3.26,1.194 -6.746,1.791 -10.46,1.791 -4.89,0 -9.124,-0.768 -12.706,-2.302 -3.581,-1.536 -6.509,-3.573 -8.783,-6.112 -2.274,-2.539 -3.98,-5.42 -5.116,-8.641 -1.137,-3.222 -1.706,-6.5 -1.706,-9.835 V 10.233 c 0,-2.956 0.995,-5.401 2.985,-7.334 C -50.34,0.967 -47.678,0 -44.342,0 h 4.661 v 36.327 c 0,4.509 1.042,7.987 3.127,10.431 2.084,2.445 4.832,3.667 8.243,3.667 4.055,0 7.182,-1.203 9.38,-3.61 2.198,-2.407 3.298,-6.301 3.298,-11.682 v -24.9 c 0,-2.956 1.031,-5.401 3.098,-7.334 C -10.47,0.967 -7.694,0 -4.206,0 Z"
             style="fill:none;stroke:#f2f2f2;stroke-width:1;stroke-linecap:butt;stroke-linejoin:miter;stroke-miterlimit:10;stroke-dasharray:none;stroke-opacity:1"
             id="path124" />
        </g>
      </g>
    </g>
    <text
       xml:space="preserve"
       transform="matrix(1,0,0,-1,528.4746,181.1152)"
       style="font-variant:normal;font-weight:normal;font-stretch:normal;font-size:116.427px;font-family:Cocon-Regular;-inkscape-font-specification:Cocon-Regular;writing-mode:lr-tb;fill:#ffffff;fill-opacity:1;fill-rule:nonzero;stroke:none"
       id="text128"><tspan
         x="0 70.147446 135.11388 192.39612 251.77403 322.0379 387.00433"
         y="0"
         sodipodi:role="line"
         id="tspan126">Rescue </tspan></text>
    <g
       id="g130">
      <g
         id="g132"
         clip-path="url(#clipPath136)">
        <g
           id="g138"
           transform="translate(563.4941,247.8564)">
          <path
             d="m 0,0 c 1.742,0 3.344,-0.162 4.804,-0.483 1.458,-0.323 2.718,-0.929 3.78,-1.82 1.061,-0.89 1.876,-2.094 2.444,-3.609 0.569,-1.517 0.853,-3.468 0.853,-5.856 0,-3.601 -1.185,-6.31 -3.553,-8.129 -2.369,-1.82 -5.183,-2.729 -8.442,-2.729 -2.16,0 -4.15,0.019 -5.969,0.057 -1.819,0.037 -3.62,0.246 -5.401,0.625 v 21.091 c 0.455,0.076 0.995,0.17 1.621,0.285 0.625,0.113 1.287,0.208 1.989,0.284 0.701,0.075 1.354,0.141 1.961,0.199 C -5.307,-0.028 -4.795,0 -4.378,0 Z m 30.841,-61.853 c -0.892,1.251 -1.848,3.033 -2.871,5.344 l -6.424,14.895 c -0.986,2.349 -2.331,4.586 -4.037,6.709 -1.705,2.122 -3.657,3.618 -5.856,4.491 2.35,0.303 4.529,1.08 6.538,2.33 2.009,1.251 3.733,2.823 5.173,4.719 1.441,1.894 2.587,4.045 3.44,6.452 0.853,2.406 1.279,4.975 1.279,7.703 0,3.335 -0.625,6.396 -1.876,9.182 -1.251,2.785 -3.013,5.21 -5.287,7.276 -2.274,2.065 -5.023,3.657 -8.243,4.775 -3.222,1.118 -6.822,1.678 -10.801,1.678 h -8.812 c -1.478,0 -3.232,-0.096 -5.258,-0.284 -2.029,-0.191 -4.028,-0.418 -5.998,-0.683 -1.971,-0.266 -3.79,-0.578 -5.457,-0.938 -1.668,-0.36 -2.938,-0.692 -3.81,-0.995 v -66.855 c 0,-3.259 0.91,-5.855 2.73,-7.788 1.819,-1.932 4.528,-2.899 8.128,-2.899 h 5.117 v 32.006 c 0.834,0 1.914,-0.095 3.241,-0.285 1.326,-0.189 2.88,-0.435 4.661,-0.739 1.023,-0.151 2.019,-0.369 2.984,-0.653 0.967,-0.284 1.914,-0.749 2.843,-1.393 0.929,-0.645 1.819,-1.591 2.672,-2.842 0.853,-1.251 1.753,-2.957 2.7,-5.117 l 5.912,-14.439 c 1.1,-2.578 2.673,-4.406 4.719,-5.486 2.047,-1.081 4.358,-1.621 6.936,-1.621 2.236,0 3.837,0.171 4.803,0.512 0.967,0.341 1.924,1.024 2.871,2.046 -0.455,0.683 -1.128,1.649 -2.017,2.899 z"
             style="fill:none;stroke:#f2f2f2;stroke-width:1;stroke-linecap:butt;stroke-linejoin:miter;stroke-miterlimit:10;stroke-dasharray:none;stroke-opacity:1"
             id="path140" />
        </g>
        <g
           id="g142"
           transform="translate(643.6797,220.1426)">
          <path
             d="M 0,0 C -0.512,-0.777 -1.44,-1.403 -2.785,-1.876 -4.131,-2.351 -5.969,-2.7 -8.3,-2.928 -10.631,-3.155 -13.672,-3.27 -17.424,-3.27 h -6.935 l 0.113,2.104 c 0.076,1.781 0.435,3.486 1.08,5.117 0.645,1.629 1.554,3.041 2.729,4.235 1.174,1.194 2.558,2.161 4.15,2.899 1.592,0.739 3.316,1.109 5.174,1.109 3.637,0 6.527,-0.777 8.669,-2.331 C -0.304,8.309 0.768,5.94 0.768,2.757 0.768,1.695 0.512,0.776 0,0 Z m 13.331,11.057 c -1.402,3.032 -3.268,5.589 -5.6,7.674 -2.33,2.084 -5.002,3.686 -8.015,4.804 -3.013,1.117 -6.15,1.677 -9.408,1.677 -4.511,0 -8.652,-0.786 -12.422,-2.358 -3.772,-1.574 -7.012,-3.838 -9.721,-6.794 -2.71,-2.956 -4.823,-6.548 -6.339,-10.773 -1.516,-4.226 -2.274,-8.954 -2.274,-14.184 0,-4.814 0.872,-9.153 2.615,-13.019 1.743,-3.865 4.055,-7.183 6.936,-9.948 2.879,-2.767 6.176,-4.889 9.891,-6.367 3.714,-1.479 7.524,-2.217 11.427,-2.217 4.244,0 7.826,0.369 10.745,1.108 2.918,0.739 5.268,1.752 7.049,3.041 1.781,1.288 3.042,2.786 3.78,4.491 0.739,1.706 1.109,3.563 1.109,5.572 v 4.888 h -0.569 c -2.501,-2.311 -5.514,-3.875 -9.039,-4.689 -3.524,-0.816 -6.916,-1.223 -10.176,-1.223 -4.661,0 -8.603,1.166 -11.824,3.496 -3.222,2.331 -5.136,5.467 -5.742,9.41 h 10.233 c 10.308,0 17.794,1.108 22.455,3.325 4.662,2.217 6.993,6.187 6.993,11.91 0,3.752 -0.702,7.143 -2.104,10.176 z"
             style="fill:none;stroke:#f2f2f2;stroke-width:1;stroke-linecap:butt;stroke-linejoin:miter;stroke-miterlimit:10;stroke-dasharray:none;stroke-opacity:1"
             id="path144" />
        </g>
        <g
           id="g146"
           transform="translate(711.1885,212.7803)">
          <path
             d="m 0,0 c -3.374,2.88 -8.376,4.869 -15.008,5.969 -2.691,0.455 -4.852,0.872 -6.481,1.251 -1.63,0.379 -2.891,0.804 -3.781,1.279 -0.89,0.474 -1.497,1.004 -1.819,1.592 -0.322,0.587 -0.483,1.26 -0.483,2.018 0,2.008 0.9,3.675 2.701,5.002 1.799,1.326 5.088,1.991 9.863,1.991 3.752,0 7.277,-0.56 10.573,-1.677 3.298,-1.119 5.761,-2.493 7.391,-4.122 h 0.568 v 5.912 c 0,1.478 -0.369,3.014 -1.108,4.605 -0.739,1.592 -1.924,3.041 -3.553,4.349 -1.63,1.308 -3.705,2.368 -6.225,3.184 -2.521,0.814 -5.562,1.221 -9.124,1.221 -4.056,0 -7.713,-0.578 -10.972,-1.733 -3.26,-1.156 -6.055,-2.72 -8.386,-4.691 -2.33,-1.97 -4.131,-4.283 -5.4,-6.935 -1.271,-2.653 -1.904,-5.439 -1.904,-8.357 0,-4.813 1.61,-8.565 4.832,-11.255 3.22,-2.693 8.167,-4.492 14.837,-5.402 2.729,-0.417 4.946,-0.834 6.652,-1.25 1.705,-0.418 3.021,-0.901 3.951,-1.45 0.928,-0.55 1.563,-1.156 1.904,-1.819 0.341,-0.663 0.512,-1.45 0.512,-2.36 0,-4.586 -3.79,-6.878 -11.37,-6.878 -1.857,0 -3.724,0.151 -5.6,0.454 -1.876,0.303 -3.667,0.73 -5.372,1.28 -1.706,0.549 -3.24,1.194 -4.605,1.932 -1.364,0.74 -2.464,1.488 -3.297,2.246 h -0.568 v -7.049 c 0,-1.63 0.501,-3.184 1.506,-4.661 1.003,-1.479 2.416,-2.787 4.236,-3.923 1.818,-1.137 3.95,-2.057 6.395,-2.757 2.445,-0.701 5.107,-1.052 7.988,-1.052 8.45,0 14.931,1.866 19.442,5.6 4.51,3.732 6.765,8.933 6.765,15.604 C 5.06,-6.842 3.373,-2.881 0,0 Z"
             style="fill:none;stroke:#f2f2f2;stroke-width:1;stroke-linecap:butt;stroke-linejoin:miter;stroke-miterlimit:10;stroke-dasharray:none;stroke-opacity:1"
             id="path148" />
        </g>
        <g
           id="g150"
           transform="translate(776.3945,223.752)">
          <path
             d="m 0,0 v 7.334 c 0,1.856 -0.427,3.6 -1.279,5.229 -0.853,1.63 -2.037,3.061 -3.553,4.293 -1.517,1.231 -3.326,2.198 -5.43,2.899 -2.103,0.701 -4.386,1.052 -6.849,1.052 -5.344,0 -10.119,-0.891 -14.326,-2.672 -4.208,-1.781 -7.76,-4.188 -10.66,-7.22 -2.899,-3.032 -5.107,-6.565 -6.623,-10.603 -1.516,-4.036 -2.274,-8.309 -2.274,-12.819 0,-4.472 0.872,-8.612 2.615,-12.421 1.743,-3.809 4.074,-7.116 6.992,-9.921 2.918,-2.804 6.311,-4.993 10.177,-6.565 3.865,-1.572 7.978,-2.359 12.336,-2.359 5.685,0 10.213,1.221 13.587,3.667 3.373,2.444 5.059,5.56 5.059,9.351 v 7.22 h -0.568 c -1.1,-1.479 -3.004,-2.824 -5.714,-4.036 -2.71,-1.214 -6.319,-1.82 -10.829,-1.82 -5.382,0 -9.617,1.772 -12.706,5.316 -3.09,3.543 -4.633,8.177 -4.633,13.899 0,2.35 0.463,4.529 1.393,6.538 0.928,2.008 2.169,3.771 3.723,5.286 1.554,1.516 3.374,2.702 5.458,3.554 2.083,0.853 4.263,1.279 6.538,1.279 4.471,0 8.148,-0.635 11.028,-1.905 2.88,-1.269 4.87,-2.795 5.97,-4.576 z"
             style="fill:none;stroke:#f2f2f2;stroke-width:1;stroke-linecap:butt;stroke-linejoin:miter;stroke-miterlimit:10;stroke-dasharray:none;stroke-opacity:1"
             id="path152" />
        </g>
        <g
           id="g154"
           transform="translate(842.9082,232.791)">
          <path
             d="m 0,0 c 0,3.752 -1.015,6.557 -3.042,8.414 -2.027,1.857 -5.315,2.785 -9.863,2.785 h -2.842 v -35.303 c 0,-5.343 -1.005,-9.201 -3.014,-11.569 -2.009,-2.369 -4.642,-3.553 -7.901,-3.553 -3.564,0 -6.567,1.26 -9.011,3.781 -2.444,2.52 -3.667,6.66 -3.667,12.422 V 0 c 0,3.752 -1.033,6.557 -3.098,8.414 -2.066,1.857 -5.354,2.785 -9.864,2.785 h -2.899 v -35.758 c 0,-4.586 0.72,-8.641 2.161,-12.166 1.439,-3.524 3.4,-6.508 5.884,-8.953 2.481,-2.445 5.409,-4.293 8.783,-5.543 3.372,-1.251 7.011,-1.876 10.915,-1.876 18.305,0 27.458,9.872 27.458,29.618 z"
             style="fill:none;stroke:#f2f2f2;stroke-width:1;stroke-linecap:butt;stroke-linejoin:miter;stroke-miterlimit:10;stroke-dasharray:none;stroke-opacity:1"
             id="path156" />
        </g>
        <g
           id="g158"
           transform="translate(895.4648,220.1426)">
          <path
             d="M 0,0 C -0.512,-0.777 -1.44,-1.403 -2.785,-1.876 -4.131,-2.351 -5.969,-2.7 -8.3,-2.928 -10.631,-3.155 -13.672,-3.27 -17.424,-3.27 h -6.935 l 0.113,2.104 c 0.076,1.781 0.435,3.486 1.08,5.117 0.645,1.629 1.554,3.041 2.729,4.235 1.174,1.194 2.558,2.161 4.15,2.899 1.592,0.739 3.316,1.109 5.174,1.109 3.637,0 6.527,-0.777 8.669,-2.331 C -0.304,8.309 0.768,5.94 0.768,2.757 0.768,1.695 0.512,0.776 0,0 Z m 13.331,11.057 c -1.402,3.032 -3.268,5.589 -5.6,7.674 -2.33,2.084 -5.002,3.686 -8.015,4.804 -3.013,1.117 -6.15,1.677 -9.408,1.677 -4.511,0 -8.652,-0.786 -12.422,-2.358 -3.772,-1.574 -7.012,-3.838 -9.721,-6.794 -2.71,-2.956 -4.823,-6.548 -6.339,-10.773 -1.516,-4.226 -2.274,-8.954 -2.274,-14.184 0,-4.814 0.872,-9.153 2.615,-13.019 1.743,-3.865 4.055,-7.183 6.936,-9.948 2.879,-2.767 6.176,-4.889 9.891,-6.367 3.714,-1.479 7.524,-2.217 11.427,-2.217 4.244,0 7.826,0.369 10.745,1.108 2.918,0.739 5.268,1.752 7.049,3.041 1.781,1.288 3.042,2.786 3.78,4.491 0.739,1.706 1.109,3.563 1.109,5.572 v 4.888 h -0.569 c -2.501,-2.311 -5.514,-3.875 -9.039,-4.689 -3.524,-0.816 -6.916,-1.223 -10.176,-1.223 -4.661,0 -8.603,1.166 -11.824,3.496 -3.222,2.331 -5.136,5.467 -5.742,9.41 h 10.233 c 10.308,0 17.794,1.108 22.455,3.325 4.662,2.217 6.993,6.187 6.993,11.91 0,3.752 -0.702,7.143 -2.104,10.176 z"
             style="fill:none;stroke:#f2f2f2;stroke-width:1;stroke-linecap:butt;stroke-linejoin:miter;stroke-miterlimit:10;stroke-dasharray:none;stroke-opacity:1"
             id="path160" />
        </g>
      </g>
    </g>
    <text
       xml:space="preserve"
       transform="matrix(1,0,0,-1,588.6924,93.2305)"
       style="font-variant:normal;font-weight:normal;font-stretch:normal;font-size:116.427px;font-family:Cocon-Regular;-inkscape-font-specification:Cocon-Regular;writing-mode:lr-tb;fill:#ffffff;fill-opacity:1;fill-rule:nonzero;stroke:none"
       id="text164"><tspan
         x="0 65.548569 110.48951 180.57874 215.85622 280.82266 340.20056"
         y="0"
         sodipodi:role="line"
         id="tspan162">Project</tspan></text>
    <g
       id="g166">
      <g
         id="g168"
         clip-path="url(#clipPath172)">
        <g
           id="g174"
           transform="translate(632.8926,138.2832)">
          <path
             d="m 0,0 c -2.142,-2.18 -5.278,-3.269 -9.408,-3.269 -2.01,0 -4.036,0.143 -6.083,0.427 -2.047,0.284 -3.772,0.615 -5.174,0.994 v 22.57 c 0.91,0.151 1.99,0.37 3.241,0.654 1.25,0.284 2.368,0.426 3.354,0.426 h 5.174 c 4.167,0 7.228,-0.976 9.18,-2.928 C 2.236,16.922 3.212,13.653 3.212,9.067 3.212,5.202 2.141,2.18 0,0 Z m 17.623,21.062 c -1.308,3.108 -3.126,5.714 -5.457,7.818 -2.331,2.103 -5.126,3.695 -8.386,4.775 -3.259,1.08 -6.841,1.62 -10.744,1.62 h -8.926 c -1.402,0 -3.079,-0.114 -5.031,-0.34 -1.952,-0.228 -3.893,-0.522 -5.826,-0.882 -1.934,-0.361 -3.791,-0.768 -5.571,-1.222 -1.783,-0.455 -3.222,-0.872 -4.322,-1.251 v -65.206 c 0,-2.123 0.294,-3.914 0.882,-5.372 0.587,-1.46 1.345,-2.644 2.274,-3.554 0.928,-0.909 1.97,-1.553 3.127,-1.932 1.155,-0.379 2.283,-0.569 3.382,-0.569 h 6.31 v 30.983 c 3.335,-1.782 7.789,-2.672 13.36,-2.672 3.827,0 7.39,0.616 10.688,1.847 3.297,1.232 6.148,3.033 8.555,5.402 2.407,2.368 4.283,5.238 5.628,8.612 1.345,3.373 2.019,7.163 2.019,11.37 0,3.942 -0.654,7.466 -1.962,10.573 z"
             style="fill:none;stroke:#f2f2f2;stroke-width:1;stroke-linecap:butt;stroke-linejoin:miter;stroke-miterlimit:10;stroke-dasharray:none;stroke-opacity:1"
             id="path176" />
        </g>
        <g
           id="g178"
           transform="translate(698.0137,140.8701)">
          <path
             d="m 0,0 v 5.571 c 0,1.174 -0.237,2.378 -0.711,3.611 -0.475,1.23 -1.214,2.33 -2.217,3.297 -1.005,0.966 -2.341,1.762 -4.009,2.387 -1.667,0.625 -3.694,0.938 -6.082,0.938 -4.131,0 -7.674,-0.701 -10.63,-2.103 -2.956,-1.403 -5.364,-3.222 -7.22,-5.458 -1.858,-2.236 -3.213,-4.851 -4.066,-7.845 -0.852,-2.995 -1.279,-6.045 -1.279,-9.153 v -28.879 c 0,-3.261 1.032,-5.742 3.099,-7.447 2.065,-1.706 4.841,-2.559 8.328,-2.559 h 4.321 v 36.1 c 0,4.812 0.928,8.243 2.785,10.289 1.857,2.047 4.529,3.07 8.016,3.07 2.009,0 3.732,-0.19 5.174,-0.568 C -3.052,0.871 -1.744,0.455 -0.569,0 Z"
             style="fill:none;stroke:#f2f2f2;stroke-width:1;stroke-linecap:butt;stroke-linejoin:miter;stroke-miterlimit:10;stroke-dasharray:none;stroke-opacity:1"
             id="path180" />
        </g>
        <g
           id="g182"
           transform="translate(745.0273,110.7969)">
          <path
             d="m 0,0 c -2.198,-3.335 -5.591,-5.003 -10.176,-5.003 -5.192,0 -8.972,1.753 -11.341,5.259 -2.369,3.505 -3.553,8.385 -3.553,14.639 0,5.23 1.117,9.512 3.354,12.847 2.236,3.335 5.609,5.003 10.119,5.003 5.117,0 8.877,-1.772 11.285,-5.315 2.406,-3.544 3.61,-8.462 3.61,-14.752 C 3.298,7.561 2.198,3.335 0,0 Z m -39.282,0.711 c 1.326,-3.81 3.249,-7.163 5.769,-10.063 2.521,-2.899 5.619,-5.23 9.295,-6.992 3.676,-1.762 7.883,-2.643 12.621,-2.643 5.04,0 9.503,0.881 13.388,2.643 3.885,1.762 7.125,4.168 9.722,7.22 2.595,3.05 4.576,6.632 5.94,10.744 1.364,4.112 2.047,8.536 2.047,13.275 0,4.207 -0.664,8.214 -1.99,12.023 -1.327,3.81 -3.25,7.182 -5.77,10.119 -2.521,2.937 -5.62,5.277 -9.295,7.022 -3.676,1.742 -7.883,2.614 -12.621,2.614 -5.041,0 -9.504,-0.891 -13.387,-2.672 -3.886,-1.781 -7.145,-4.206 -9.779,-7.276 -2.635,-3.07 -4.614,-6.662 -5.94,-10.773 -1.327,-4.113 -1.99,-8.537 -1.99,-13.274 0,-4.17 0.663,-8.158 1.99,-11.967 z"
             style="fill:none;stroke:#f2f2f2;stroke-width:1;stroke-linecap:butt;stroke-linejoin:miter;stroke-miterlimit:10;stroke-dasharray:none;stroke-opacity:1"
             id="path184" />
        </g>
        <g
           id="g186"
           transform="translate(795.3965,143.8828)">
          <path
             d="m 0,0 c 0,3.563 -0.995,6.254 -2.985,8.073 -1.99,1.82 -4.728,2.729 -8.215,2.729 h -4.434 v -59.465 c 0,-3.031 -0.815,-5.267 -2.444,-6.708 -1.631,-1.44 -3.526,-2.235 -5.686,-2.388 -1.023,-0.075 -1.989,-0.15 -2.899,-0.227 -0.871,-0.076 -1.733,-0.132 -2.586,-0.17 -0.854,-0.037 -1.544,-0.057 -2.075,-0.057 v -5.685 c 0,-1.97 0.909,-3.648 2.728,-5.032 1.82,-1.383 4.283,-2.074 7.391,-2.074 3.031,0 5.846,0.464 8.442,1.393 2.595,0.928 4.851,2.283 6.765,4.064 1.913,1.782 3.392,3.971 4.435,6.567 1.042,2.595 1.563,5.523 1.563,8.783 z m -1.138,32.461 c -1.743,1.781 -3.846,2.672 -6.309,2.672 -2.502,0 -4.662,-0.891 -6.482,-2.672 -1.819,-1.781 -2.728,-3.903 -2.728,-6.367 0,-2.501 0.909,-4.661 2.728,-6.481 1.82,-1.819 3.98,-2.728 6.482,-2.728 2.463,0 4.566,0.909 6.309,2.728 1.743,1.82 2.616,3.98 2.616,6.481 0,2.464 -0.873,4.586 -2.616,6.367 z"
             style="fill:none;stroke:#f2f2f2;stroke-width:1;stroke-linecap:butt;stroke-linejoin:miter;stroke-miterlimit:10;stroke-dasharray:none;stroke-opacity:1"
             id="path188" />
        </g>
        <g
           id="g190"
           transform="translate(849.4883,132.2578)">
          <path
             d="M 0,0 C -0.512,-0.777 -1.44,-1.403 -2.785,-1.876 -4.131,-2.351 -5.969,-2.7 -8.3,-2.928 -10.631,-3.155 -13.672,-3.27 -17.424,-3.27 h -6.935 l 0.113,2.104 c 0.076,1.781 0.435,3.486 1.08,5.117 0.645,1.629 1.554,3.041 2.729,4.235 1.174,1.194 2.558,2.161 4.15,2.899 1.592,0.739 3.316,1.109 5.174,1.109 3.637,0 6.527,-0.777 8.669,-2.331 C -0.304,8.309 0.768,5.94 0.768,2.757 0.768,1.695 0.512,0.776 0,0 Z m 13.331,11.057 c -1.402,3.032 -3.268,5.589 -5.6,7.674 -2.33,2.084 -5.002,3.686 -8.015,4.804 -3.013,1.117 -6.15,1.677 -9.408,1.677 -4.511,0 -8.652,-0.786 -12.422,-2.358 -3.772,-1.574 -7.012,-3.838 -9.721,-6.794 -2.71,-2.956 -4.823,-6.548 -6.339,-10.773 -1.516,-4.226 -2.274,-8.954 -2.274,-14.184 0,-4.814 0.872,-9.153 2.615,-13.019 1.743,-3.865 4.055,-7.183 6.936,-9.948 2.879,-2.767 6.176,-4.889 9.891,-6.367 3.714,-1.479 7.524,-2.217 11.427,-2.217 4.244,0 7.826,0.369 10.745,1.108 2.918,0.739 5.268,1.752 7.049,3.041 1.781,1.288 3.042,2.786 3.78,4.491 0.739,1.706 1.109,3.563 1.109,5.572 v 4.888 h -0.569 c -2.501,-2.311 -5.514,-3.875 -9.039,-4.689 -3.524,-0.816 -6.916,-1.223 -10.176,-1.223 -4.661,0 -8.603,1.166 -11.824,3.496 -3.222,2.331 -5.136,5.467 -5.742,9.41 h 10.233 c 10.308,0 17.794,1.108 22.455,3.325 4.662,2.217 6.993,6.187 6.993,11.91 0,3.752 -0.702,7.143 -2.104,10.176 z"
             style="fill:none;stroke:#f2f2f2;stroke-width:1;stroke-linecap:butt;stroke-linejoin:miter;stroke-miterlimit:10;stroke-dasharray:none;stroke-opacity:1"
             id="path192" />
        </g>
        <g
           id="g194"
           transform="translate(924.9561,135.8672)">
          <path
             d="m 0,0 v 7.334 c 0,1.856 -0.427,3.6 -1.279,5.229 -0.853,1.63 -2.037,3.061 -3.553,4.293 -1.517,1.231 -3.326,2.198 -5.43,2.899 -2.103,0.701 -4.386,1.052 -6.849,1.052 -5.344,0 -10.119,-0.891 -14.326,-2.672 -4.208,-1.781 -7.76,-4.188 -10.66,-7.22 -2.899,-3.032 -5.107,-6.565 -6.623,-10.603 -1.516,-4.036 -2.274,-8.309 -2.274,-12.819 0,-4.472 0.872,-8.612 2.615,-12.421 1.743,-3.809 4.074,-7.116 6.992,-9.921 2.918,-2.804 6.311,-4.993 10.177,-6.565 3.865,-1.572 7.978,-2.359 12.336,-2.359 5.685,0 10.213,1.221 13.587,3.667 3.373,2.444 5.059,5.56 5.059,9.351 v 7.22 h -0.568 c -1.1,-1.479 -3.004,-2.824 -5.713,-4.036 -2.711,-1.214 -6.32,-1.82 -10.83,-1.82 -5.382,0 -9.617,1.772 -12.706,5.316 -3.09,3.543 -4.633,8.177 -4.633,13.899 0,2.35 0.463,4.529 1.393,6.538 0.928,2.008 2.169,3.771 3.723,5.286 1.554,1.516 3.374,2.702 5.458,3.554 2.083,0.853 4.263,1.279 6.538,1.279 4.471,0 8.148,-0.635 11.028,-1.905 2.88,-1.269 4.87,-2.795 5.97,-4.576 z"
             style="fill:none;stroke:#f2f2f2;stroke-width:1;stroke-linecap:butt;stroke-linejoin:miter;stroke-miterlimit:10;stroke-dasharray:none;stroke-opacity:1"
             id="path196" />
        </g>
        <g
           id="g198"
           transform="translate(936.8379,115.7998)">
          <path
             d="m 0,0 c 0,-7.354 1.923,-13.066 5.77,-17.141 3.846,-4.074 9.768,-6.111 17.765,-6.111 4.585,0 8.025,0.929 10.319,2.786 2.292,1.857 3.439,4.415 3.439,7.675 v 5.571 h -0.626 c -2.388,-1.478 -6.14,-2.218 -11.256,-2.218 -3.183,0 -5.628,0.863 -7.333,2.587 -1.706,1.725 -2.558,4.633 -2.558,8.727 v 24.559 h 12.45 c 3.183,0 5.533,0.833 7.049,2.502 1.515,1.667 2.274,3.315 2.274,4.945 v 6.424 H 15.52 v 14.213 h -3.639 c -1.25,0 -2.511,-0.409 -3.78,-1.223 C 6.83,52.48 5.646,51.448 4.548,50.197 3.714,49.175 3.003,48.255 2.416,47.44 1.827,46.625 1.364,45.754 1.022,44.825 0.682,43.896 0.426,42.873 0.256,41.756 0.085,40.638 0,39.302 0,37.748 Z"
             style="fill:none;stroke:#f2f2f2;stroke-width:1;stroke-linecap:butt;stroke-linejoin:miter;stroke-miterlimit:10;stroke-dasharray:none;stroke-opacity:1"
             id="path200" />
        </g>
      </g>
    </g>
    <text
       xml:space="preserve"
       transform="matrix(1,0,0,-1,536.8057,344.8896)"
       style="font-variant:normal;font-weight:normal;font-stretch:normal;font-size:67.3314px;font-family:Cocon-Regular;-inkscape-font-specification:Cocon-Regular;writing-mode:lr-tb;fill:#ffffff;fill-opacity:1;fill-rule:nonzero;stroke:none"
       id="text204"><tspan
         x="0 37.368927 78.441078"
         y="0"
         sodipodi:role="line"
         id="tspan202">The</tspan></text>
    <g
       id="g206">
      <g
         id="g208"
         clip-path="url(#clipPath212)">
        <g
           id="g214"
           transform="translate(573.6934,391.0156)">
          <path
             d="m 0,0 h -30.97 c -0.942,0 -1.759,-0.159 -2.449,-0.477 -0.69,-0.318 -1.271,-0.723 -1.743,-1.216 -0.471,-0.494 -0.821,-1.041 -1.052,-1.644 -0.23,-0.603 -0.345,-1.179 -0.345,-1.726 v -3.025 h 13.283 v -31.857 c 0,-2.06 0.525,-3.606 1.578,-4.636 1.052,-1.03 2.388,-1.545 4.011,-1.545 h 3.681 v 38.038 h 8.483 c 0.766,0 1.49,0.17 2.169,0.51 0.679,0.34 1.266,0.756 1.759,1.249 0.493,0.494 0.882,1.052 1.167,1.677 C -0.143,-4.027 0,-3.441 0,-2.893 Z"
             style="fill:none;stroke:#f2f2f2;stroke-width:1;stroke-linecap:butt;stroke-linejoin:miter;stroke-miterlimit:10;stroke-dasharray:none;stroke-opacity:1"
             id="path216" />
        </g>
        <g
           id="g218"
           transform="translate(610.8437,344.8896)">
          <path
             d="m 0,0 v 21.271 c 0,5.173 -1.299,9.112 -3.896,11.819 -2.597,2.707 -6.252,4.061 -10.964,4.061 -0.855,0 -1.688,-0.154 -2.499,-0.461 -0.811,-0.307 -1.556,-0.696 -2.236,-1.167 -0.679,-0.471 -1.299,-0.986 -1.857,-1.545 -0.559,-0.559 -0.992,-1.113 -1.299,-1.66 v 10.356 c 0,1.709 -0.525,3.107 -1.578,4.192 -1.052,1.085 -2.663,1.627 -4.833,1.627 h -2.827 V 6.049 c 0,-1.885 0.493,-3.364 1.479,-4.438 C -29.523,0.537 -27.945,0 -25.775,0 h 2.959 v 20.614 c 0,1.599 0.202,2.942 0.608,4.027 0.405,1.085 0.931,1.962 1.578,2.63 0.646,0.668 1.353,1.151 2.12,1.447 0.767,0.296 1.513,0.444 2.236,0.444 0.986,0 1.912,-0.16 2.778,-0.477 0.866,-0.318 1.628,-0.8 2.285,-1.447 0.657,-0.646 1.178,-1.501 1.562,-2.564 0.382,-1.064 0.575,-2.329 0.575,-3.798 V 6.049 c 0,-1.972 0.548,-3.474 1.643,-4.504 C -6.334,0.515 -4.844,0 -2.959,0 Z"
             style="fill:none;stroke:#f2f2f2;stroke-width:1;stroke-linecap:butt;stroke-linejoin:miter;stroke-miterlimit:10;stroke-dasharray:none;stroke-opacity:1"
             id="path220" />
        </g>
        <g
           id="g222"
           transform="translate(641.2715,367.4595)">
          <path
             d="M 0,0 C -0.296,-0.45 -0.833,-0.811 -1.611,-1.085 -2.389,-1.359 -3.452,-1.562 -4.8,-1.693 -6.147,-1.825 -7.907,-1.891 -10.076,-1.891 h -4.012 l 0.067,1.217 c 0.042,1.03 0.25,2.016 0.624,2.959 0.373,0.942 0.898,1.759 1.578,2.449 0.679,0.691 1.479,1.249 2.4,1.677 0.92,0.427 1.918,0.641 2.991,0.641 2.105,0 3.776,-0.449 5.014,-1.348 C -0.176,4.805 0.444,3.436 0.444,1.595 0.444,0.98 0.296,0.449 0,0 Z m 7.71,6.395 c -0.812,1.753 -1.891,3.232 -3.238,4.438 -1.349,1.205 -2.894,2.131 -4.636,2.778 -1.743,0.646 -3.557,0.97 -5.441,0.97 -2.609,0 -5.003,-0.456 -7.184,-1.365 -2.181,-0.909 -4.055,-2.219 -5.622,-3.928 -1.568,-1.71 -2.789,-3.787 -3.665,-6.23 -0.877,-2.445 -1.316,-5.179 -1.316,-8.203 0,-2.784 0.504,-5.293 1.513,-7.529 1.008,-2.236 2.345,-4.154 4.011,-5.753 1.665,-1.6 3.572,-2.828 5.721,-3.682 2.147,-0.855 4.35,-1.283 6.607,-1.283 2.455,0 4.526,0.214 6.214,0.642 1.687,0.427 3.047,1.013 4.077,1.758 1.029,0.745 1.759,1.611 2.186,2.597 0.427,0.987 0.641,2.061 0.641,3.223 v 2.827 H 7.249 c -1.446,-1.337 -3.188,-2.241 -5.227,-2.713 -2.039,-0.471 -4.001,-0.706 -5.885,-0.706 -2.696,0 -4.976,0.674 -6.838,2.021 -1.863,1.348 -2.971,3.162 -3.32,5.442 h 5.917 c 5.961,0 10.291,0.641 12.986,1.923 2.696,1.282 4.044,3.578 4.044,6.888 0,2.17 -0.405,4.131 -1.216,5.885 z"
             style="fill:none;stroke:#f2f2f2;stroke-width:1;stroke-linecap:butt;stroke-linejoin:miter;stroke-miterlimit:10;stroke-dasharray:none;stroke-opacity:1"
             id="path224" />
        </g>
      </g>
    </g>
  </g>
</svg>
