<?xml version="1.0" encoding="UTF-8" standalone="no"?>
<!-- Generator: Adobe Illustrator 19.0.0, SVG Export Plug-In . SVG Version: 6.00 Build 0)  -->

<svg
   xmlns:dc="http://purl.org/dc/elements/1.1/"
   xmlns:cc="http://creativecommons.org/ns#"
   xmlns:rdf="http://www.w3.org/1999/02/22-rdf-syntax-ns#"
   xmlns:svg="http://www.w3.org/2000/svg"
   xmlns="http://www.w3.org/2000/svg"
   xmlns:sodipodi="http://sodipodi.sourceforge.net/DTD/sodipodi-0.dtd"
   xmlns:inkscape="http://www.inkscape.org/namespaces/inkscape"
   version="1.1"
   x="0px"
   y="0px"
   viewBox="0 0 945 510"
   xml:space="preserve"
   id="svg4766"
   sodipodi:docname="WhitePurpleBorder.svg"
   width="945"
   height="510"
   inkscape:version="0.92.4 (5da689c313, 2019-01-14)"><metadata
   id="metadata4772"><rdf:RDF><cc:Work
       rdf:about=""><dc:format>image/svg+xml</dc:format><dc:type
         rdf:resource="http://purl.org/dc/dcmitype/StillImage" /><dc:title></dc:title></cc:Work></rdf:RDF></metadata><defs
   id="defs4770">
	

		
		
	
	
	

		
		
		
		
		
		
		
		
		
	
			
			
			
			
			
			
			
			
			
			
			
			
			
			
			
			
			
			
		</defs><sodipodi:namedview
   pagecolor="#ffffff"
   bordercolor="#666666"
   borderopacity="1"
   objecttolerance="10"
   gridtolerance="10"
   guidetolerance="10"
   inkscape:pageopacity="0"
   inkscape:pageshadow="2"
   inkscape:window-width="2736"
   inkscape:window-height="1700"
   id="namedview4768"
   showgrid="false"
   inkscape:zoom="1.0508333"
   inkscape:cx="516.57011"
   inkscape:cy="379.8565"
   inkscape:window-x="-12"
   inkscape:window-y="-12"
   inkscape:window-maximized="1"
   inkscape:current-layer="XMLID_6_" />
<style
   type="text/css"
   id="style4737">
	.st0{fill:#FFFFFF;}
	.st1{fill:#FFFFFF;stroke:#F2F2F2;stroke-miterlimit:10;}
	.st2{font-family:'Cocon-Regular';}
	.st3{font-size:116.4273px;}
	.st4{font-size:67.3314px;}
</style>
<g
   id="Layer_2"
   transform="translate(0,-5)">
</g>

<style
   id="style4776"
   type="text/css">
	.st0{fill:#7B6FD3;}
	.st1{font-family:'Cocon-Regular';}
	.st2{font-size:119.9948px;}
	.st3{font-size:69.3945px;}
</style><g
   id="XMLID_6_"
   transform="matrix(0.93055215,0,0,0.93144361,-1.1222765,-0.48985737)">
		<text
   style="font-size:119.99479675px;font-family:Cocon-Regular;fill:#7b6fd3"
   id="XMLID_20_"
   transform="translate(600.4239,278.2842)"
   class="st0 st1 st2"> Kitten</text>

		<text
   style="font-size:119.99479675px;font-family:Cocon-Regular;fill:#7b6fd3"
   id="XMLID_19_"
   transform="translate(532.5372,353.8506)"
   class="st0 st1 st2">Rescue </text>

		<text
   style="font-size:119.99479675px;font-family:Cocon-Regular;fill:#7b6fd3"
   id="XMLID_18_"
   transform="translate(594.5997,444.4287)"
   class="st0 st1 st2">Project</text>

		<text
   style="font-size:69.39450073px;font-family:Cocon-Regular;fill:#7b6fd3"
   id="XMLID_17_"
   transform="translate(541.1221,185.0576)"
   class="st0 st1 st3">The</text>

	</g><path
   style="fill:#ffffff;stroke-width:0.95868742"
   inkscape:connector-curvature="0"
   d="m 161.11669,181.01795 c -1.91736,0 -3.54713,1.5339 -3.54713,3.54715 0,1.91738 1.53389,3.54717 3.54713,3.54717 1.91736,0 3.54713,-1.53391 3.54713,-3.54717 0,-1.91738 -1.62977,-3.54715 -3.54713,-3.54715 z"
   class="st0"
   id="XMLID_27_" /><path
   style="fill:#ffffff;stroke-width:0.95868742"
   inkscape:connector-curvature="0"
   d="m 287.56699,209.87457 c -1.53389,1.62977 -3.25952,2.97194 -5.17689,4.12237 0.2876,-0.19173 0.5752,-0.2876 0.86282,-0.47934 1.05455,-0.67109 2.01323,-1.43804 2.87605,-2.20499 0.47933,-0.47935 0.95868,-0.95869 1.43802,-1.43804 z"
   class="st0"
   id="XMLID_34_" /><path
   style="fill:#ffffff;stroke-width:0.95868742"
   inkscape:connector-curvature="0"
   d="m 191.89042,170.37647 c -5.84797,0 -10.64138,4.98519 -10.64138,11.12082 0,6.13563 4.79341,11.12083 10.64138,11.12083 5.84796,0 10.64138,-4.9852 10.64138,-11.12083 0,-6.13563 -4.79342,-11.12082 -10.64138,-11.12082 z"
   class="st0"
   id="XMLID_35_" /><path
   style="fill:#ffffff;stroke-width:0.95868742"
   inkscape:connector-curvature="0"
   d="m 289.9637,206.71089 v 0 c 0,0 0,0 0,0 0,0 0,0 0,0 -0.19174,0.2876 -0.38347,0.47934 -0.47934,0.76695 0.0959,-0.0959 0.19173,-0.19173 0.2876,-0.28761 0.0959,-0.0959 0.0959,-0.19174 0.19174,-0.28761 0,-0.0959 0,-0.0959 0,-0.19173 z"
   class="st0"
   id="XMLID_36_" /><path
   style="fill:#ffffff;stroke-width:0.95868742"
   inkscape:connector-curvature="0"
   d="m 332.81683,46.321733 c 7.66947,-7.669535 19.07779,-10.449741 19.65301,-10.641479 l 3.16365,-0.766954 1.72563,2.684337 c 5.08102,7.861274 6.90252,20.995353 7.47772,27.418589 4.50582,3.45129 8.72402,7.09432 12.75049,10.92909 -0.67108,-12.558866 -3.73886,-33.841827 -15.7224,-60.397592 -6.90252,1.821514 -24.06295,7.861273 -42.27793,25.405335 1.24629,0.383476 2.39671,0.862823 3.643,1.342169 3.25952,1.342168 6.42317,2.588467 9.58683,4.026505 z"
   class="st0"
   id="XMLID_54_" /><path
   style="fill:#ffffff;stroke-width:0.95868742"
   inkscape:connector-curvature="0"
   d="m 289.9637,204.79351 c 0,-0.0959 -0.0959,-0.19174 -0.0959,-0.28761 0,-0.0959 0,-0.0959 -0.0959,-0.19174 0.0959,0.19174 0.19174,0.28761 0.19174,0.47935 z"
   class="st0"
   id="XMLID_55_" /><path
   style="fill:#ffffff;stroke-width:0.95868742"
   inkscape:connector-curvature="0"
   d="m 341.92432,50.635847 c 4.40995,2.300861 8.72401,4.69759 12.84634,7.381927 -0.76693,-4.218243 -1.91735,-8.724096 -3.45125,-12.271256 -2.58844,0.958693 -6.23144,2.492599 -9.39509,4.889329 z"
   class="st0"
   id="XMLID_56_" /><path
   style="fill:#ffffff;stroke-width:0.95868742"
   inkscape:connector-curvature="0"
   d="m 139.16284,66.83774 c 0.38349,-5.368674 1.91738,-20.516007 7.57361,-29.144233 l 1.72563,-2.684338 3.16365,0.766954 c 0.57521,0.09587 12.65461,3.067813 20.22821,11.312564 3.643,-1.629776 7.28599,-3.163683 11.12072,-4.505852 0.67108,-0.287607 1.34217,-0.479346 2.01324,-0.766953 -18.40671,-18.023408 -35.85474,-24.159036 -42.85314,-25.980551 -12.75048,28.185541 -15.43479,50.523063 -15.81827,62.602582 0.47934,-0.479344 0.95869,-0.958697 1.34216,-1.43804 3.73887,-3.643028 7.47773,-6.99845 11.50419,-10.162133 z"
   class="st0"
   id="XMLID_57_" /><path
   style="fill:#ffffff;stroke-width:0.95868742"
   inkscape:connector-curvature="0"
   d="m 163.03405,51.306932 c -3.35538,-2.780207 -7.38185,-4.505853 -10.16203,-5.560414 -1.72563,3.930637 -2.87605,9.107574 -3.54713,13.709294 4.40994,-2.971944 8.91575,-5.656281 13.70916,-8.14888 z"
   class="st0"
   id="XMLID_58_" /><path
   style="fill:#ffffff;stroke-width:0.95868742"
   inkscape:connector-curvature="0"
   d="m 65.056647,195.97354 c -0.287607,-0.38347 -0.479338,-0.57522 -0.575204,-0.67109 l -0.479357,-0.19174 -0.67107,-0.67108 c -3.642993,-4.02651 -9.011627,-8.53236 -13.805028,-7.47779 -3.547137,0.76694 -6.32732,4.40998 -8.148817,7.66953 14.763724,12.07952 22.529049,36.04681 22.816656,37.19724 v 0.0959 c 2.204969,7.66954 6.710792,21.57057 12.271148,34.99226 2.684307,-6.03976 7.190121,-8.53236 10.353776,-9.58693 -7.285987,-30.00705 -13.32569,-45.63372 -17.160434,-53.495 -2.109094,-4.50585 -3.642993,-6.71084 -4.60167,-7.86127 z"
   class="st0"
   id="XMLID_59_" /><path
   style="fill:#ffffff;stroke-width:0.95868742"
   inkscape:connector-curvature="0"
   d="m 299.35879,181.01795 c -1.91737,0 -3.54713,1.5339 -3.54713,3.54715 0,1.91738 1.53389,3.54717 3.54713,3.54717 1.91737,0 3.54713,-1.53391 3.54713,-3.54717 0,-1.91738 -1.62976,-3.54715 -3.54713,-3.54715 z"
   class="st0"
   id="XMLID_60_" /><path
   style="fill:#ffffff;stroke-width:0.95868742"
   inkscape:connector-curvature="0"
   d="m 409.31975,185.5263 c 3.16365,-20.2284 -0.67109,-35.4716 -0.76696,-35.66334 C 395.99405,101.83249 366.27487,68.757621 320.16222,51.501167 285.74548,38.654696 254.49242,39.900996 253.53374,39.900996 h -0.38347 -0.38348 c -0.86282,0 -32.11588,-1.2463 -66.62848,11.600171 -46.11265,17.160585 -75.92769,50.235453 -88.39057,98.361793 0,0.19174 -3.930609,15.43494 -0.766954,35.66334 4.218214,26.84337 18.310864,49.37263 41.894454,66.91669 l 0.47935,0.38347 0.0959,-0.19173 c 0,0 0.0959,0.0959 0.2876,0.2876 0.19174,0.0959 0.47934,0.38348 0.86281,0.67109 0.38347,0.28761 0.95868,0.67108 1.53389,1.05456 0.57522,0.38348 1.24629,0.86282 2.01324,1.34216 0.76694,0.47936 1.62976,0.9587 2.49257,1.53391 0.86281,0.47935 1.82151,1.05456 2.87605,1.62979 0.47935,0.2876 1.05455,0.57521 1.53389,0.86281 0.47935,0.28761 1.05456,0.57522 1.62977,0.76696 1.05455,0.57521 2.20497,1.05455 3.25952,1.53391 1.15041,0.57521 2.20498,0.95868 3.35539,1.43804 1.15043,0.47934 2.20497,0.86281 3.35539,1.34217 1.05456,0.38347 2.1091,0.76694 3.16365,1.15042 0.95869,0.38348 2.01324,0.67109 2.87605,0.95869 0.86282,0.28761 1.72563,0.57521 2.49258,0.76696 0.76694,0.19174 1.34217,0.38348 1.91737,0.47934 1.05455,0.28761 1.62976,0.47935 1.62976,0.47935 0,0 -0.67108,0 -1.72563,0 -0.57521,0 -1.24629,0 -2.01323,0 -0.76695,0 -1.62976,-0.0959 -2.58845,-0.0959 -0.95868,-0.0959 -2.01323,-0.0959 -3.06778,-0.19174 -1.05456,-0.0959 -2.20498,-0.19174 -3.45127,-0.38347 -1.15041,-0.19174 -2.39671,-0.28761 -3.64299,-0.47936 -1.24629,-0.19173 -2.49257,-0.38347 -3.73886,-0.67108 -1.24629,-0.2876 -2.49257,-0.47934 -3.73887,-0.76695 -0.57521,-0.0959 -1.24629,-0.28761 -1.82149,-0.38348 -0.57521,-0.19173 -1.2463,-0.2876 -1.8215,-0.47934 -1.15042,-0.28761 -2.30084,-0.67109 -3.3554,-0.9587 -1.05454,-0.2876 -2.1091,-0.67108 -2.97191,-0.95868 -0.19174,-0.0959 -0.28761,-0.0959 -0.47934,-0.19175 -0.38347,5.27281 -0.86281,13.13408 -1.43803,21.37884 15.81827,16.68123 32.11589,21.95404 33.55391,22.33752 19.653,4.31411 36.42996,15.43494 49.85152,32.88313 10.54552,13.7093 18.98193,32.02031 25.02163,53.20739 2.78019,9.77867 4.88928,19.36558 6.32731,28.18555 1.53388,-8.81997 3.54712,-18.40688 6.3273,-28.18555 6.13558,-21.18708 14.47612,-39.40223 25.02163,-53.20739 13.3257,-17.44819 30.10265,-28.56902 49.85153,-32.88313 1.34215,-0.38348 17.16043,-5.46455 32.69109,-21.4747 -0.5752,-8.14888 -1.15043,-16.10602 -1.5339,-21.66644 -0.0959,0 -0.0959,0 -0.19173,0.0959 -0.95869,0.28761 -1.91736,0.57521 -2.97192,0.9587 -1.05455,0.2876 -2.20497,0.67108 -3.35539,0.95868 -0.57521,0.19174 -1.15042,0.28761 -1.8215,0.47935 -0.57521,0.0959 -1.24628,0.28761 -1.82149,0.38348 -1.2463,0.2876 -2.49258,0.57521 -3.73886,0.76695 -1.2463,0.28761 -2.49258,0.47935 -3.73887,0.67109 -1.24629,0.19173 -2.49259,0.38347 -3.643,0.47934 -1.15041,0.19174 -2.30084,0.19174 -3.45126,0.38347 -1.05455,0.0959 -2.1091,0.19174 -3.06779,0.19174 -0.95867,0.0959 -1.82149,0.0959 -2.58844,0.0959 -0.76694,0 -1.43802,0 -2.01324,0 -1.05455,0 -1.72562,0 -1.72562,0 0,0 0.57521,-0.19175 1.62976,-0.47935 0.57521,-0.0959 1.15043,-0.28761 1.91736,-0.47935 0.76695,-0.19173 1.5339,-0.47934 2.49259,-0.76695 0.86281,-0.28761 1.82148,-0.57522 2.87604,-0.95869 0.95868,-0.38348 2.1091,-0.67109 3.16366,-1.15043 1.05454,-0.47934 2.20497,-0.86283 3.35539,-1.34217 1.15041,-0.47934 2.30084,-0.9587 3.35538,-1.43804 1.15042,-0.47934 2.20498,-1.05456 3.25952,-1.53391 0.57522,-0.2876 1.05456,-0.57521 1.62977,-0.76695 0.47935,-0.28761 1.05455,-0.57522 1.53389,-0.86282 1.05456,-0.47934 1.91737,-1.05457 2.87605,-1.62978 0.86281,-0.57522 1.72564,-1.05456 2.49258,-1.5339 0.76694,-0.47936 1.43803,-0.9587 2.01324,-1.34217 0.38346,-0.19174 0.67107,-0.47935 0.95868,-0.67109 v -0.38348 l 2.1091,-1.5339 c 23.48773,-17.63993 37.58037,-40.16919 41.79859,-67.01256 z m -195.57136,21.09122 c 0.19173,0.2876 0.38348,0.57521 0.57521,0.86282 l -0.0959,0.0959 c -0.28762,-0.28761 -0.47935,-0.57522 -0.57522,-0.86283 z m -60.78051,-25.2136 c 0,-16.20189 13.22984,-29.43184 29.43158,-29.43184 16.20173,0 29.43157,13.22995 29.43157,29.43184 0,16.20189 -13.22984,29.43184 -29.43157,29.43184 -16.20174,0 -29.43158,-13.22995 -29.43158,-29.43184 z m 92.80052,119.35714 c -0.0959,1.2463 -0.2876,2.58847 -0.5752,3.83476 -0.38347,1.2463 -0.86281,2.58847 -1.43803,3.73891 -0.67107,1.15043 -1.43802,2.30085 -2.30084,3.35542 -0.19173,0.2876 -0.47935,0.47934 -0.67108,0.76695 l -0.67108,0.67108 c -0.47934,0.38348 -0.95867,0.86283 -1.43801,1.2463 -2.01324,1.62978 -4.21822,2.78021 -6.32731,3.73891 l -0.38348,0.19173 -0.28761,0.0959 -0.19173,0.0959 -0.67108,0.28761 -0.38347,0.0959 -0.19174,0.0959 -0.19174,0.0959 -0.86281,0.28761 c -0.57521,0.19174 -1.15042,0.38348 -1.72563,0.47935 -0.57521,0.19174 -1.15042,0.28761 -1.72564,0.38348 -2.39669,0.47934 -4.88927,0.57521 -7.38185,0.2876 -1.24628,-0.0959 -2.49258,-0.38347 -3.64299,-0.67108 -1.15043,-0.38348 -2.30085,-0.76696 -3.45126,-1.2463 -2.20498,-0.95869 -4.21821,-2.205 -5.94383,-3.64303 -3.45128,-2.87608 -5.94384,-6.2315 -7.86121,-9.39518 -1.91737,-3.25955 -3.25952,-6.5191 -4.31407,-9.49105 -1.05456,-2.97194 -1.8215,-5.84802 -2.30084,-8.34062 -0.47934,-2.4926 -0.86282,-4.69759 -1.05456,-6.5191 -0.19173,-1.82152 -0.2876,-3.25956 -0.2876,-4.21825 0,-0.95869 0,-1.5339 0,-1.5339 0,0 0.76695,1.91738 2.20497,5.17693 0.76694,1.62977 1.62976,3.64303 2.68432,5.84802 1.05454,2.205 2.39671,4.60172 3.83472,7.19019 0.76695,1.2463 1.5339,2.58847 2.39671,3.83477 0.86281,1.34216 1.82151,2.58846 2.87605,3.83476 2.01324,2.49261 4.40994,4.88933 6.99839,6.71085 1.34216,0.86282 2.68431,1.62978 4.12234,2.10912 1.43802,0.47934 2.97191,0.86283 4.5058,0.95869 1.5339,0.0959 3.06779,-0.0959 4.69756,-0.38347 0.38347,-0.0959 0.76694,-0.19175 1.24628,-0.28762 0.38347,-0.0959 0.86281,-0.19173 1.15043,-0.38347 l 0.5752,-0.19174 h 0.0959 l 0.19174,-0.0959 0.38347,-0.0959 0.67107,-0.28761 h 0.0959 c 0,0 0,0 0,0 v 0 h 0.0959 l 0.28761,-0.0959 c 1.62976,-0.67109 3.06778,-1.43804 4.21821,-2.39673 1.15041,-0.9587 2.10909,-1.91738 2.78018,-3.06781 0.28761,-0.57523 0.5752,-1.15044 0.76694,-1.82152 0.19174,-0.67109 0.38348,-1.34217 0.47934,-2.01326 0.0959,-0.67108 0.0959,-1.43803 0.0959,-2.20498 0,-0.38348 -0.0959,-0.76696 -0.0959,-1.15044 0,-0.38347 -0.0959,-0.76695 -0.19173,-1.15043 -0.47935,-3.16368 -1.62976,-6.42323 -2.97192,-9.39517 -1.34215,-3.06782 -2.87605,-5.84803 -4.31407,-8.4365 -1.5339,-2.58847 -2.97192,-4.98519 -4.31408,-6.99845 -1.34215,-2.10912 -2.58845,-3.83476 -3.54713,-5.36867 -2.01323,-2.97194 -3.25952,-4.69759 -3.25952,-4.69759 0,0 0.47934,0.28761 1.24629,0.86282 0.76695,0.57522 1.91737,1.43804 3.35538,2.4926 1.43804,1.15044 3.16366,2.58847 4.98516,4.31412 1.8215,1.72564 3.9306,3.73889 5.94383,6.13562 2.10912,2.39674 4.21821,5.08107 6.23145,8.24475 2.01324,3.16369 3.83472,6.80671 4.98515,11.12083 0.57521,2.20499 0.86281,4.50585 0.76694,6.99845 z m 6.51905,-96.54028 c -3.45126,7.38193 -10.83312,12.463 -19.46126,12.463 -6.99839,0 -13.51743,-3.45129 -17.5439,-9.10757 -0.19174,-0.28761 -0.38347,-0.57522 -0.57521,-0.86283 v 0 c -0.19174,-0.38347 -0.19174,-0.76694 -0.19174,-1.15043 0,-1.62977 1.34215,-2.97194 2.97192,-2.97194 0.76694,0 1.43802,0.2876 2.01323,0.76696 v 0 c 0.19174,0.38347 0.47934,0.67108 0.67109,0.95868 2.97191,4.02651 7.66945,6.32737 12.65461,6.32737 7.66946,0 14.09263,-5.56041 15.43479,-12.84647 -1.62977,-1.62977 -3.73886,-4.21825 -6.90251,-8.53236 -6.61492,-9.0117 8.14879,-9.20344 10.92898,-9.10757 2.78018,0 17.5439,0.0959 10.92899,9.10757 -2.97192,4.02651 -4.98516,6.61498 -6.61491,8.24475 1.24628,7.4778 7.66946,13.22995 15.43479,13.22995 4.98516,0 9.6827,-2.39673 12.65462,-6.32737 0.19173,-0.28761 0.47934,-0.67108 0.67107,-0.95869 v 0 c 0.57522,-0.47934 1.24629,-0.76695 2.01324,-0.76695 1.05455,0 1.91737,0.47935 2.39671,1.34217 -0.19173,-0.28761 -0.47934,-0.57522 -0.86282,-0.76695 0.28762,0.19173 0.57522,0.57521 0.86282,0.86281 0,0 -0.0959,-0.0959 -0.0959,-0.0959 0,0.0959 0.0959,0.0959 0.0959,0.19173 0,0 0.0959,0.0959 0.0959,0.0959 0,0.0959 0.0959,0.0959 0.0959,0.19175 0.0959,0.0959 0.0959,0.2876 0.19173,0.38347 0,0 0,0 0,0 0.0959,0.19174 0.0959,0.47934 0.0959,0.67108 0,0.38349 0,0.76696 -0.19173,1.15043 v 0 c 0,0 0,0.0959 -0.0959,0.0959 0,0.0959 -0.0959,0.19174 -0.19174,0.28761 -0.0959,0.19174 -0.19173,0.28761 -0.38347,0.47935 -0.95869,1.34217 -2.01324,2.49259 -3.25952,3.54716 -0.86282,0.86282 -1.8215,1.5339 -2.87605,2.20499 -3.3554,2.10912 -7.38186,3.35542 -11.40833,3.35542 -8.62815,0 -16.10588,-5.08107 -19.55714,-12.463 z m 64.61525,72.76472 c 0,0.95869 -0.0959,2.39673 -0.28761,4.21825 -0.19174,1.82151 -0.57521,4.0265 -1.05456,6.5191 -0.5752,2.4926 -1.24628,5.27281 -2.30083,8.34062 -1.05456,2.97195 -2.39671,6.2315 -4.31408,9.49105 -1.91736,3.25955 -4.40994,6.61497 -7.8612,9.39518 -1.72563,1.43803 -3.73887,2.68434 -5.94383,3.64303 -1.05456,0.47934 -2.30084,0.86282 -3.45127,1.2463 -1.15042,0.28761 -2.3967,0.57521 -3.64299,0.67108 -2.49258,0.28761 -4.98514,0.19174 -7.38185,-0.2876 -0.57522,-0.0959 -1.15043,-0.19174 -1.72564,-0.38348 -0.57521,-0.19174 -1.15041,-0.28761 -1.72563,-0.47935 l -0.86282,-0.28761 -0.19173,-0.0959 -0.19174,-0.0959 -0.38347,-0.0959 -0.67108,-0.28761 -0.19173,-0.0959 -0.28761,-0.0959 -0.38347,-0.19173 c -2.20497,-0.9587 -4.31407,-2.10913 -6.32731,-3.73891 -0.47935,-0.38347 -0.95869,-0.86282 -1.43803,-1.2463 l -0.67107,-0.67108 c -0.19174,-0.19173 -0.47934,-0.47935 -0.67108,-0.76695 -0.86281,-0.95869 -1.62976,-2.20499 -2.30084,-3.35542 -0.67109,-1.2463 -1.15043,-2.49261 -1.43803,-3.73891 -0.2876,-1.24629 -0.47934,-2.58846 -0.57521,-3.83476 -0.0959,-2.4926 0.19174,-4.88933 0.76695,-6.99845 1.15043,-4.31412 2.97191,-7.95714 4.98515,-11.12083 2.01324,-3.16368 4.12234,-5.84801 6.23144,-8.24475 2.10911,-2.39673 4.12234,-4.40998 5.94383,-6.13562 1.82151,-1.72565 3.54713,-3.16368 4.98516,-4.31412 1.43802,-1.15043 2.58845,-2.01326 3.35539,-2.4926 0.76695,-0.57521 1.24628,-0.86282 1.24628,-0.86282 0,0 -1.15041,1.72565 -3.25952,4.69759 -0.95867,1.53391 -2.20497,3.25955 -3.54712,5.36867 -1.34215,2.10913 -2.78019,4.40998 -4.31407,6.99845 -1.5339,2.58847 -2.97192,5.46455 -4.31408,8.4365 -1.34215,2.97194 -2.49258,6.23149 -2.97191,9.39517 -0.0959,0.38348 -0.0959,0.76696 -0.19174,1.15043 0,0.38348 -0.0959,0.76696 -0.0959,1.15044 0,0.76695 0,1.5339 0.0959,2.20498 0.0959,0.67109 0.2876,1.34217 0.47933,2.01326 0.19174,0.57521 0.47935,1.24629 0.76695,1.82152 0.67109,1.15043 1.62976,2.10911 2.78018,3.06781 1.15043,0.86282 2.58845,1.72564 4.21822,2.39673 l 0.2876,0.0959 h 0.0959 v 0 c 0,0 0,0 0,0 h 0.0959 l 0.67107,0.28761 0.38347,0.0959 0.19174,0.0959 h 0.0959 l 0.57522,0.19174 c 0.38346,0.0959 0.76693,0.19174 1.15041,0.38347 0.38347,0.0959 0.76694,0.19174 1.24628,0.28762 1.62977,0.28761 3.16365,0.47934 4.69755,0.38347 1.53389,-0.0959 3.06779,-0.38347 4.50581,-0.95869 1.43803,-0.47934 2.87605,-1.2463 4.12235,-2.10912 2.68431,-1.82152 4.98514,-4.21824 6.99838,-6.71085 1.05455,-1.2463 1.91737,-2.58847 2.87605,-3.83476 0.86281,-1.2463 1.72563,-2.58847 2.39671,-3.83477 1.53389,-2.58847 2.78018,-4.98519 3.83472,-7.19019 1.05456,-2.20499 2.01324,-4.21825 2.68432,-5.84802 1.43803,-3.25955 2.20498,-5.17693 2.20498,-5.17693 0,0 0.0959,0.57521 0,1.5339 z m 3.83472,-66.14974 c -16.20174,0 -29.43157,-13.22995 -29.43157,-29.43184 0,-16.20189 13.22983,-29.43184 29.43157,-29.43184 16.20175,0 29.43157,13.22995 29.43157,29.43184 0,16.20189 -13.22982,29.43184 -29.43157,29.43184 z"
   class="st0"
   id="XMLID_73_" /><path
   style="fill:#ffffff;stroke-width:0.95868742"
   inkscape:connector-curvature="0"
   d="m 330.03665,170.37647 c -5.84797,0 -10.64138,4.98519 -10.64138,11.12082 0,6.13563 4.79341,11.12083 10.64138,11.12083 5.84797,0 10.64139,-4.9852 10.64139,-11.12083 0,-6.13563 -4.69756,-11.12082 -10.64139,-11.12082 z"
   class="st0"
   id="XMLID_156_" /><path
   style="fill:#ffffff;stroke-width:0.95868742"
   inkscape:connector-curvature="0"
   d="m 457.5415,186.86597 c -4.69755,-1.05457 -10.06618,3.54715 -13.80504,7.47779 l -0.67108,0.67108 -0.47934,0.19174 c -0.0959,0.0959 -0.28759,0.28762 -0.5752,0.67109 -0.9587,1.15043 -2.49258,3.35542 -4.69755,7.7654 -3.83473,7.86127 -9.87443,23.48795 -17.16043,53.49501 3.06778,1.05456 7.66947,3.54716 10.35378,9.58692 5.56036,-13.42168 10.06617,-27.32272 12.27114,-34.99226 v -0.0959 c 0.38348,-1.15044 8.05295,-25.2136 22.81665,-37.19725 -1.62976,-3.16368 -4.5058,-6.80671 -8.05293,-7.57366 z"
   class="st0"
   id="XMLID_161_" /><path
   style="fill:#ffffff;stroke-width:0.95868742"
   inkscape:connector-curvature="0"
   d="m 288.14219,209.10762 c -0.19173,0.19174 -0.28759,0.38347 -0.47933,0.57521 0.19174,-0.19174 0.38347,-0.38347 0.47933,-0.57521 z"
   class="st0"
   id="XMLID_162_" /><path
   style="fill:#ffffff;stroke:#7b6fd3;stroke-width:19.44434166;stroke-linecap:round;stroke-linejoin:round;stroke-miterlimit:4;stroke-dasharray:none;stroke-opacity:1;paint-order:stroke markers fill"
   inkscape:connector-curvature="0"
   d="m 247.39817,449.35581 c -0.95869,-12.94234 -3.45126,-33.45835 -9.3951,-54.16609 -13.03808,-45.25027 -35.85474,-71.9019 -67.77889,-78.90035 l -0.2876,-0.0959 c -0.95869,-0.28761 -22.62493,-6.5191 -42.18205,-29.62358 -11.79181,-13.9969 -28.760506,-23.10447 -37.86799,-20.22839 -1.342158,0.38347 -5.176893,1.62977 -5.943838,9.58691 h -0.287606 c -0.191732,1.34217 -0.383473,3.45129 -0.479339,5.56042 4.314073,8.43649 9.011618,15.33906 13.421557,18.40688 17.927376,12.07951 39.114266,34.60878 39.977086,35.56747 l -0.0959,0.0959 c 2.87605,3.83478 0.86281,6.61498 0.86281,6.61498 -3.16366,2.58847 -6.90252,0.38348 -7.76534,-0.19173 v 0 c 0,0 0,-0.0959 -0.0959,-0.0959 0,0 -0.0959,-0.0959 -0.0959,-0.0959 v 0 C 127.46681,339.6814 107.43033,318.78192 91.228579,307.75697 83.079782,302.29242 74.451627,288.10378 65.631741,265.76626 59.400306,249.94784 55.277965,235.85507 54.894493,234.5129 c -0.479339,-1.34217 -9.395091,-28.47314 -24.446417,-35.66333 -4.314074,-2.01326 -8.628148,-2.205 -13.133959,-0.38348 l -0.47934,0.19174 h -0.287606 c -0.191736,0.0959 -0.671078,0.38347 -1.054552,1.34217 -0.862814,1.91738 -2.109102,8.05301 4.505811,23.67969 12.367012,29.52771 22.529049,66.14973 22.624915,66.43735 0,0.19173 4.79342,16.87297 16.393489,36.81377 10.545507,18.21514 29.04809,42.85352 57.520986,57.13802 26.45965,13.22995 38.82666,21.28297 45.82504,29.62358 7.57361,9.10758 7.95708,18.02342 8.62816,30.39054 0.0959,2.87608 0.28759,6.13563 0.5752,9.68279 0,0 0,0 0,0 0.0959,0.47935 0.0959,0.95869 0.0959,1.53391 h -0.0959 c 0,0.57521 0,1.15042 -0.0959,1.72564 0,15.91428 9.6827,29.43185 23.48773,35.27987 4.50581,1.91738 9.58683,2.97194 14.76372,2.97194 5.1769,0 10.25791,-1.05456 14.76372,-2.97194 12.84635,-5.36868 22.24145,-17.63993 23.39187,-32.21205 0,-2.39674 -0.0959,-6.03976 -0.47934,-10.73735 z"
   class="st0"
   id="XMLID_30_" /><path
   style="fill:#ffffff;stroke:#7b6fd3;stroke-width:19.44434166;stroke-linecap:round;stroke-linejoin:round;stroke-miterlimit:4;stroke-dasharray:none;stroke-opacity:1;paint-order:stroke markers fill"
   inkscape:connector-curvature="0"
   d="m 258.95009,449.35581 c 0.95868,-12.94234 3.45126,-33.45835 9.39509,-54.16609 13.0381,-45.25027 35.85475,-71.9019 67.7789,-78.90035 l 0.28761,-0.0959 c 0.95868,-0.28761 22.62492,-6.5191 42.18205,-29.62358 11.7918,-13.9969 28.7605,-23.10447 37.86798,-20.22839 1.34215,0.38347 5.17689,1.62977 5.94384,9.58691 h 0.28761 c 0.19173,1.34217 0.38347,3.45129 0.47934,5.56042 -4.31409,8.43649 -9.01163,15.33906 -13.42158,18.40688 -17.92737,12.07951 -39.11427,34.60878 -39.97708,35.56747 l 0.0959,0.0959 c -2.87606,3.83478 -0.86282,6.61498 -0.86282,6.61498 3.16365,2.58847 6.90252,0.38348 7.76533,-0.19173 v 0 c 0,0 0,-0.0959 0.0959,-0.0959 0,0 0.0959,-0.0959 0.0959,-0.0959 v 0 c 1.91737,-2.10913 21.95386,-23.00861 38.1556,-34.03356 8.1488,-5.46455 16.77695,-19.65319 25.59683,-41.99071 6.23145,-15.81842 10.35378,-29.91119 10.73725,-31.25336 0.47935,-1.34217 9.39509,-28.47314 24.44643,-35.66333 4.31407,-2.01326 8.62814,-2.205 13.13395,-0.38348 l 0.47934,0.19174 h 0.28761 c 0.19173,0.0959 0.67108,0.38347 1.05456,1.34217 0.86281,1.91738 2.10909,8.05301 -4.50583,23.67969 -12.367,29.52771 -22.52904,66.14973 -22.62492,66.43735 0,0.19173 -4.79341,16.87297 -16.39347,36.81377 -10.54552,18.21514 -29.0481,42.85352 -57.52099,57.13802 -26.45965,13.22995 -38.82666,21.28297 -45.82506,29.62358 -7.57358,9.10758 -7.95705,18.02342 -8.62813,30.39054 -0.0959,2.87608 -0.28761,6.13563 -0.57522,9.68279 0,0 0,0 0,0 -0.0959,0.47935 -0.0959,0.95869 -0.0959,1.53391 h 0.0959 c 0,0.57521 0,1.15042 0.0959,1.72564 0,15.91428 -9.6827,29.43185 -23.48773,35.27987 -4.50582,1.91738 -9.58684,2.97194 -14.76372,2.97194 -5.17689,0 -10.25791,-1.05456 -14.76372,-2.97194 -12.84637,-5.36868 -22.24146,-17.63993 -23.39187,-32.21205 -0.0959,-2.39674 0.0959,-6.03976 0.47934,-10.73735 z"
   class="st0"
   id="XMLID_29_" /><path
   d="m 214.45235,208.3398 c -0.18608,-0.27943 -0.37215,-0.55887 -0.55824,-0.93145 l -0.093,0.0931 c 0.18607,0.37258 0.37215,0.65201 0.65127,0.93144 z"
   class="st0"
   id="XMLID_171_"
   inkscape:connector-curvature="0"
   style="fill:#7b6fd3;stroke-width:0.93091774" /><path
   d="m 290.09324,207.5015 v 0 c -0.18608,0.27943 -0.37216,0.55887 -0.65128,0.93144 -1.76774,2.42175 -3.90764,4.47093 -6.41971,6.05439 2.6051,-1.49031 4.65197,-3.53949 6.41971,-6.05439 0.18608,-0.37257 0.65128,-0.65201 0.65128,-0.93144 v 0 0 c 0.093,-0.37258 0.18607,-0.74516 0.18607,-1.11774 0,-0.65201 -0.18607,-1.30402 -0.65127,-1.76973 0.37216,0.46571 0.65127,1.11772 0.65127,1.76973 0,0.37258 -0.093,0.74516 -0.18607,1.11774 z"
   class="st0"
   id="XMLID_172_"
   inkscape:connector-curvature="0"
   style="fill:#7b6fd3;stroke-width:0.93091774" /><path
   style="fill:#7b6fd3;fill-opacity:1;stroke:#7b6fd3;stroke-width:8.83833694;stroke-miterlimit:4;stroke-dasharray:none;stroke-opacity:1"
   inkscape:connector-curvature="0"
   d="m 28.919879,106.83339 c 5.369548,-4.0265 12.944446,-1.91738 12.944446,-1.91738 0,0 -0.767076,-7.861277 4.218926,-12.367127 6.23252,-5.656279 14.478604,-4.697592 19.081078,0.287611 4.602464,4.889324 4.794233,12.558866 4.50658,18.119276 -0.383538,7.57367 -2.780659,16.96884 -4.602465,21.95405 -5.17778,0.86281 -14.862141,1.5339 -22.437043,0.47934 -5.561319,-0.76696 -13.040328,-2.39673 -16.971604,-7.7654 -4.027161,-5.46455 -3.451852,-13.7093 3.260082,-18.79037 z"
   class="st0"
   id="XMLID_49_" /><path
   d="m 211.97449,181.41476 c 0,-16.30026 -13.21383,-29.52677 -29.4985,-29.52677 -16.28466,0 -29.4985,13.22651 -29.4985,29.52677 0,16.30026 13.21384,29.52676 29.4985,29.52676 16.28467,0 29.4985,-13.31964 29.4985,-29.52676 z m -50.90119,6.5201 c -1.95416,0 -3.5361,-1.58345 -3.5361,-3.53949 0,-1.95602 1.58194,-3.53948 3.5361,-3.53948 1.95415,0 3.53609,1.58346 3.53609,3.53948 0,2.04918 -1.58194,3.53949 -3.53609,3.53949 z m 30.80127,4.56408 c -5.86248,0 -10.60829,-5.0298 -10.60829,-11.08418 0,-6.05438 4.74581,-11.08418 10.60829,-11.08418 5.86248,0 10.6083,5.0298 10.6083,11.08418 0,6.05438 -4.74582,11.08418 -10.6083,11.08418 z"
   class="st0"
   id="XMLID_165_"
   inkscape:connector-curvature="0"
   style="fill:#7b6fd3;stroke-width:0.93099779" /><path
   d="m 350.25455,181.41476 c 0,-16.30026 -13.21384,-29.52677 -29.49851,-29.52677 -16.28466,0 -29.4985,13.22651 -29.4985,29.52677 0,16.30026 13.21384,29.52676 29.4985,29.52676 16.19161,-0.0931 29.49851,-13.31964 29.49851,-29.52676 z m -50.90121,6.5201 c -1.95416,0 -3.5361,-1.58345 -3.5361,-3.53949 0,-1.95602 1.58194,-3.53948 3.5361,-3.53948 1.95417,0 3.5361,1.58346 3.5361,3.53948 0,2.04918 -1.58193,3.53949 -3.5361,3.53949 z m 30.80128,4.56408 c -5.86248,0 -10.6083,-5.0298 -10.6083,-11.08418 0,-6.05438 4.74582,-11.08418 10.6083,-11.08418 5.86248,0 10.60829,5.0298 10.60829,11.08418 0,6.05438 -4.74581,11.08418 -10.60829,11.08418 z"
   class="st0"
   id="XMLID_169_"
   inkscape:connector-curvature="0"
   style="fill:#7b6fd3;stroke-width:0.93099779" /><path
   d="m 282.97562,213.64271 c -0.65138,0.37258 -1.39582,0.74515 -2.04721,1.02459 3.44305,-1.58346 6.32775,-4.09836 8.46802,-7.07898 0.18612,-0.27943 0.37223,-0.55886 0.55833,-0.93144 0,0 0,0 0,0 0.18612,-0.37258 0.18612,-0.74516 0.18612,-1.11774 0,-1.02459 -0.46528,-1.86288 -1.30278,-2.42174 0.27917,0.18628 0.46528,0.37257 0.65139,0.55886 -0.55833,-0.65201 -1.39583,-1.11773 -2.32638,-1.11773 -0.74444,0 -1.48889,0.27943 -2.04722,0.8383 v 0 c -0.1861,0.37258 -0.46527,0.65201 -0.65138,1.02459 -2.97777,4.0052 -7.63052,6.33381 -12.65551,6.33381 -7.81664,0 -14.23745,-5.77495 -15.44717,-13.2265 1.58194,-1.58346 3.62916,-4.1915 6.60692,-8.1967 6.60693,-9.03501 -8.18886,-9.22129 -10.88746,-9.12815 -2.79165,-0.0931 -17.58743,0.0931 -10.88746,9.12815 3.16388,4.28464 5.30415,6.98582 6.88609,8.56928 -1.30277,7.26526 -7.72358,12.85392 -15.44717,12.85392 -4.93192,0 -9.67774,-2.42176 -12.6555,-6.33381 -0.27917,-0.27943 -0.46528,-0.65201 -0.65139,-1.02459 v 0 c -0.55833,-0.55887 -1.30277,-0.8383 -2.04722,-0.8383 -1.58194,0 -2.88471,1.30401 -2.88471,2.98061 0,0.37258 0.0931,0.74516 0.18611,1.11774 v 0 c 0.18612,0.27943 0.37222,0.55887 0.55833,0.93144 4.00138,5.68181 10.60829,9.12815 17.58744,9.12815 8.65414,0 16.09855,-5.12294 19.44854,-12.48135 3.44305,7.35841 10.88746,12.48135 19.44854,12.48135 4.18749,0 8.00275,-1.11773 11.35273,-3.07376 z"
   class="st0"
   id="XMLID_173_"
   inkscape:connector-curvature="0"
   style="fill:#7b6fd3;stroke-width:0.93099779" /><path
   d="m 239.98411,282.84897 c -1.95415,-3.16691 -4.09443,-5.8681 -6.2347,-8.28985 -2.0472,-2.42175 -4.09442,-4.47093 -5.95553,-6.14753 -1.8611,-1.76974 -3.53609,-3.16691 -5.02498,-4.28464 -1.39583,-1.11773 -2.60554,-1.95603 -3.34999,-2.5149 -0.83749,-0.55887 -1.20972,-0.8383 -1.20972,-0.8383 0,0 1.20972,1.6766 3.25694,4.65722 1.0236,1.49031 2.23333,3.26005 3.5361,5.40238 1.30277,2.04917 2.79165,4.47093 4.28054,6.98582 1.48888,2.60805 2.97777,5.40238 4.37359,8.47614 1.30278,2.98062 2.51249,6.24067 2.97777,9.40758 0.093,0.37258 0.093,0.74515 0.18611,1.21088 0,0.37257 0.093,0.74515 0.093,1.11772 0,0.74516 0,1.49032 -0.093,2.23547 -0.093,0.74516 -0.27916,1.39717 -0.46528,2.04918 -0.18611,0.65201 -0.46528,1.21087 -0.83749,1.76974 -0.65139,1.11773 -1.58194,2.14232 -2.79166,3.07377 -1.20972,0.93144 -2.60554,1.6766 -4.18748,2.3286 l -0.27917,0.0931 h -0.0931 v 0 c 0,0 0,0 0,0 h -0.093 l -0.74445,0.27943 -0.37221,0.0931 -0.18612,0.0931 h -0.1861 l -0.55833,0.18629 c -0.37223,0.0931 -0.74444,0.18629 -1.20972,0.37258 -0.37222,0.0931 -0.8375,0.18629 -1.20972,0.27943 -1.58194,0.27944 -3.16388,0.46572 -4.74582,0.37258 -1.58194,-0.0931 -3.07082,-0.37258 -4.46665,-0.93145 -1.48888,-0.46571 -2.79165,-1.30402 -4.18748,-2.14231 -2.6986,-1.76975 -5.02498,-4.1915 -7.0722,-6.7064 -1.0236,-1.30402 -1.95416,-2.60804 -2.88471,-3.91206 -0.93055,-1.30403 -1.675,-2.60805 -2.41943,-3.91207 -1.48889,-2.5149 -2.79166,-5.02979 -3.90833,-7.17211 -1.11666,-2.23546 -1.95415,-4.1915 -2.6986,-5.77495 -1.48887,-3.26006 -2.23332,-5.21609 -2.23332,-5.21609 0,0 0,0.55887 0,1.49032 0,0.93144 0.093,2.42175 0.37222,4.19149 0.18611,1.86289 0.55833,4.00521 1.02361,6.5201 0.55833,2.5149 1.30277,5.30923 2.32638,8.383 1.0236,2.98062 2.41944,6.24067 4.37359,9.50072 1.95416,3.26006 4.3736,6.61325 7.90969,9.40759 1.675,1.39716 3.72221,2.70118 5.86248,3.63262 1.11667,0.46573 2.23333,0.93144 3.44305,1.21088 1.20971,0.27944 2.41943,0.55887 3.62915,0.65201 2.51249,0.27943 4.93193,0.18629 7.35137,-0.27943 0.55833,-0.0931 1.20971,-0.18629 1.76804,-0.37258 0.55833,-0.18629 1.11666,-0.27944 1.76805,-0.46572 l 0.93055,-0.27943 0.18611,-0.0931 0.18612,-0.0931 0.37221,-0.0931 0.74445,-0.27944 0.18611,-0.0931 0.27917,-0.0931 0.37221,-0.1863 c 2.14027,-0.93144 4.3736,-2.14231 6.32776,-3.72577 0.46527,-0.37258 1.0236,-0.8383 1.48888,-1.30402 l 0.65139,-0.74516 c 0.18611,-0.27943 0.46527,-0.46571 0.65139,-0.74514 0.83749,-1.02459 1.58194,-2.14233 2.23332,-3.35321 0.65139,-1.21087 1.11666,-2.51489 1.48889,-3.72577 0.27916,-1.30402 0.46527,-2.60804 0.55833,-3.81892 0.093,-2.51489 -0.18612,-4.8435 -0.74445,-7.07897 -0.83749,-4.09835 -2.6986,-7.63784 -4.74582,-10.80474 z"
   class="st0"
   id="XMLID_174_"
   inkscape:connector-curvature="0"
   style="fill:#7b6fd3;stroke-width:0.93099779" /><path
   d="m 314.80051,280.79979 c -0.74444,1.6766 -1.67499,3.63263 -2.6986,5.77495 -1.11666,2.23546 -2.32638,4.65722 -3.90832,7.17212 -0.74445,1.30402 -1.58194,2.60804 -2.41944,3.91206 -0.83749,1.30402 -1.76804,2.60804 -2.88471,3.91206 -2.04721,2.5149 -4.3736,4.93666 -7.0722,6.70639 -1.30277,0.83831 -2.6986,1.6766 -4.18748,2.14233 -1.48888,0.55886 -2.97776,0.8383 -4.46665,0.93144 -1.58194,0.0931 -3.07082,-0.0931 -4.74582,-0.37258 -0.37222,-0.0931 -0.83749,-0.18629 -1.20971,-0.27943 -0.37223,-0.0931 -0.8375,-0.18629 -1.20972,-0.37258 l -0.55833,-0.18629 h -0.18611 l -0.18611,-0.0931 -0.37223,-0.0931 -0.74443,-0.27943 h -0.0931 c 0,0 0,0 0,0 v 0 h -0.093 l -0.27916,-0.0931 c -1.58194,-0.65202 -3.07082,-1.49031 -4.18749,-2.32862 -1.20971,-0.93144 -2.14027,-1.95603 -2.79165,-3.07376 -0.37222,-0.55886 -0.55833,-1.11773 -0.8375,-1.76975 -0.18611,-0.65201 -0.37222,-1.30402 -0.46528,-2.04917 -0.093,-0.74515 -0.093,-1.49031 -0.093,-2.23546 0,-0.37258 0.093,-0.74516 0.093,-1.11774 0,-0.37258 0.0931,-0.74515 0.18612,-1.21087 0.46528,-3.16691 1.67499,-6.42696 2.97776,-9.40758 1.30278,-2.98062 2.88472,-5.8681 4.3736,-8.47614 1.48888,-2.60804 2.97776,-4.93665 4.28054,-6.98583 1.30277,-2.04918 2.51248,-3.91206 3.53609,-5.40237 2.04722,-2.98062 3.25693,-4.65722 3.25693,-4.65722 0,0 -0.46527,0.27944 -1.20971,0.8383 -0.8375,0.55887 -1.95416,1.39717 -3.34999,2.5149 -1.39583,1.11773 -3.16387,2.5149 -5.02498,4.28465 -1.8611,1.76973 -3.90832,3.81891 -5.95553,6.14752 -2.04722,2.42175 -4.18749,5.12294 -6.23471,8.28984 -1.95415,3.16691 -3.81526,6.79954 -4.93192,11.08419 -0.55833,2.14232 -0.8375,4.56407 -0.74444,7.07896 0.093,1.30402 0.27916,2.51491 0.55833,3.81892 0.37222,1.30402 0.83749,2.51491 1.48889,3.72578 0.65138,1.21088 1.39582,2.32861 2.23332,3.35319 0.18611,0.27944 0.46528,0.55888 0.65139,0.74516 l 0.65138,0.74516 c 0.46528,0.46572 0.93056,0.93144 1.48889,1.30402 2.04721,1.58346 4.18748,2.79433 6.32775,3.72577 l 0.37223,0.18629 0.27916,0.0931 0.1861,0.0931 0.74445,0.27944 0.37222,0.0931 0.18611,0.0931 0.18611,0.0931 0.93055,0.27944 c 0.65139,0.18628 1.20972,0.37257 1.76805,0.46572 0.55833,0.18629 1.20972,0.27943 1.76805,0.37257 2.41943,0.46572 4.93193,0.55887 7.35137,0.27944 1.20971,-0.0931 2.41943,-0.37258 3.62914,-0.65201 1.20973,-0.37258 2.32639,-0.74516 3.44305,-1.21088 2.23332,-0.93144 4.18749,-2.23546 5.86248,-3.63263 3.44304,-2.88748 5.95553,-6.24067 7.90969,-9.40758 1.95416,-3.26005 3.25693,-6.52011 4.3736,-9.50072 1.0236,-2.98062 1.76804,-5.8681 2.32637,-8.383 0.55834,-2.51489 0.8375,-4.75036 1.02361,-6.52011 0.18612,-1.76973 0.27917,-3.26005 0.37222,-4.19149 0,-0.93145 0,-1.49031 0,-1.49031 0,0 -0.65138,1.6766 -2.04721,4.93666 z"
   class="st0"
   id="XMLID_175_"
   inkscape:connector-curvature="0"
   style="fill:#7b6fd3;stroke-width:0.93099779" /><path
   d="m 499.70122,194.82755 c -2.14027,-3.91207 -5.30414,-5.12294 -6.79303,-5.49552 -6.4208,-2.42175 -12.74856,-2.32861 -18.89021,0.0931 -2.6986,-4.75037 -7.35136,-10.52532 -14.42356,-12.01563 -7.16525,-1.58346 -14.70272,1.76974 -22.4263,9.96645 -1.95416,1.39716 -4.74582,4.65722 -8.37497,12.10876 -5.95553,12.20192 -12.00413,31.29651 -18.14577,56.91121 -4.65276,0.46572 -9.67774,2.14232 -15.07495,4.84351 -6.69997,3.44634 -13.30689,8.38299 -19.16937,14.25108 -0.46528,-7.26526 -0.93055,-13.50593 -1.11666,-16.85913 30.52211,-23.65867 40.57208,-52.16084 43.64289,-72.09373 3.35,-22.16836 -0.83749,-38.56176 -1.02361,-39.21377 -6.23469,-23.84497 -16.65688,-44.52301 -31.08043,-61.568434 0.55833,-9.8733 0.1861,-38.748053 -18.23883,-77.6823958 l -1.30277,-3.0737637 -3.34998,0.4657214 C 362.817,5.651327 336.8546,9.3771013 309.68247,37.692987 279.81175,29.123706 255.43128,29.962005 253.1049,30.055149 251.15074,29.962003 225.74666,29.030562 194.85234,38.158709 167.49411,9.4702641 141.25253,5.5582017 140.13587,5.4650566 L 136.78589,4.9993352 135.297,8.0730989 C 115.01097,51.012649 116.5929,81.657143 117.24429,88.177249 103.84434,104.75695 94.073543,124.5967 88.118001,147.32393 c -0.186104,0.65201 -4.373593,17.04541 -1.0236,39.21377 3.070818,19.93289 13.120779,48.52821 43.642889,72.09373 -0.18611,3.26006 -0.55833,9.12815 -1.11666,16.02084 -5.58331,-5.49552 -11.91106,-10.15275 -18.33187,-13.41279 -5.3972,-2.70119 -10.42219,-4.37779 -15.074947,-4.84351 -6.141646,-25.6147 -12.283291,-44.70929 -18.145772,-56.91121 -3.629148,-7.45155 -6.42081,-10.7116 -8.374967,-12.10876 -7.630524,-8.19671 -15.168006,-11.54991 -22.426313,-9.96645 -7.072193,1.49031 -11.724951,7.3584 -14.423554,12.01563 -6.141643,-2.5149 -12.469399,-2.5149 -18.890208,-0.0931 -1.488884,0.37258 -4.6527612,1.6766 -6.7930305,5.49552 -3.7222091,6.61324 -2.4194356,17.60427 3.8152635,32.41423 12.190233,28.96789 22.147141,65.01476 22.240196,65.38734 0.186111,0.74516 5.118035,17.88372 17.215213,38.8412 11.259682,19.46717 31.080445,45.82703 61.695609,61.19585 24.84574,12.3882 36.84987,20.02603 42.71235,27.19815 5.49025,6.61325 5.86247,13.13335 6.42081,24.86955 0.1861,2.98061 0.37222,6.33381 0.65138,9.96644 h -0.093 c 0,0 -0.27917,7.45155 5.21108,6.98583 3.62916,-0.27944 4.28055,-3.81893 4.28055,-6.33382 h 0.093 c -0.37222,-4.09835 -0.55833,-7.91727 -0.74443,-11.17733 -0.6514,-12.38819 -1.11667,-21.4232 -8.65415,-30.4582 -6.88608,-8.38299 -19.35548,-16.39341 -45.78316,-29.6199 C 87.745784,369.84581 69.227795,345.16257 58.619505,326.90627 47.080657,306.97337 42.241786,290.20739 42.241786,290.0211 c -0.09311,-0.37257 -10.236075,-36.97831 -22.61242,-66.59822 -6.513864,-15.64825 -5.304146,-21.79578 -4.46665,-23.65867 0.372221,-0.93144 0.837497,-1.21087 1.023608,-1.30402 h 0.279166 l 0.465276,-0.18628 c 4.559705,-1.76975 8.9333,-1.6766 13.213841,0.37258 15.074945,7.17211 24.008244,34.37026 24.473523,35.76743 0.372217,1.30402 4.466644,15.46196 10.701351,31.29651 8.840246,22.44778 17.49438,36.60573 25.590182,42.10125 16.284657,10.99103 36.198487,31.94851 38.152637,33.99768 v 0 c 0,0 0,0 0.093,0.0931 0.093,0.0931 0.093,0.0931 0.093,0.0931 v 0 c 0.93056,0.55886 4.55971,2.79433 7.72359,0.18628 0,0 2.04721,-2.79433 -0.93055,-6.61324 l 0.093,-0.0931 c -0.93054,-0.93144 -22.05408,-23.47238 -40.01374,-35.58114 -4.466645,-3.07377 -9.119412,-9.96645 -13.493005,-18.44259 0.09302,-2.14232 0.372217,-4.1915 0.558331,-5.58866 h 0.279165 c 0.744444,-8.01042 4.652758,-9.22129 5.955532,-9.68702 9.02636,-2.88747 26.055457,6.24068 37.873477,20.30548 19.54159,23.19294 41.22346,29.34047 42.15401,29.6199 l 0.27917,0.0931 c 32.01099,6.98583 54.80952,33.53197 67.83724,78.89327 8.93331,31.11022 9.95691,61.00956 10.04997,66.78451 v 0 c 0,0 -0.27916,6.52011 4.3736,6.42696 0.46527,0 0.83749,-0.0931 1.11666,-0.0931 0.37222,0.0931 0.74444,0.0931 1.11666,0.0931 4.65277,0.0931 4.3736,-6.42696 4.3736,-6.42696 v 0 c 0.093,-5.86809 1.11666,-35.67429 10.04996,-66.78451 13.02773,-45.26816 35.82625,-71.8143 67.83725,-78.89327 l 0.27916,-0.0931 c 0.93056,-0.27943 22.61243,-6.42696 42.15402,-29.6199 11.81801,-14.0648 28.84712,-23.09981 37.87347,-20.30548 1.30278,0.37258 5.2111,1.6766 5.95553,9.68702 h 0.27917 c 0.18611,1.39716 0.46528,3.44634 0.55834,5.58866 -4.3736,8.47614 -9.02636,15.36882 -13.49302,18.44259 -17.86659,12.10876 -39.08318,34.6497 -40.01374,35.58114 l 0.093,0.0931 c -2.88472,3.81891 -0.93056,6.61324 -0.93056,6.61324 3.16388,2.60805 6.88609,0.37258 7.72358,-0.18628 v 0 c 0,0 0,-0.0931 0.093,-0.0931 0,0 0.0931,-0.0931 0.0931,-0.0931 v 0 c 1.95415,-2.04917 21.96102,-23.00665 38.15264,-33.99768 8.18885,-5.49552 16.74993,-19.65347 25.59018,-42.10125 6.23469,-15.83455 10.32912,-29.99249 10.70135,-31.29651 0.46527,-1.30402 9.39858,-28.50218 24.47352,-35.76743 4.28054,-2.04918 8.56108,-2.14233 13.21384,-0.37258 l 0.46528,0.18628 h 0.27916 c 0.18611,0.0931 0.65139,0.37258 1.0236,1.30402 0.83751,1.95604 2.04722,8.01042 -4.46664,23.65867 -12.37635,29.61991 -22.51937,66.22565 -22.61242,66.59822 0,0.18629 -4.83887,16.95227 -16.37772,36.88517 -10.51523,18.2563 -29.12628,42.93954 -57.60117,57.19064 -26.42769,13.22649 -38.89708,21.23691 -45.78317,29.6199 -7.53748,9.035 -8.00275,18.07001 -8.65414,30.4582 -0.18611,3.35321 -0.37221,7.07898 -0.74444,11.17733 h 0.093 c 0,2.42176 0.65139,5.96124 4.28053,6.33382 5.58332,0.46572 5.2111,-6.98583 5.2111,-6.98583 h -0.093 c 0.27916,-3.63263 0.46527,-6.98583 0.65138,-9.96644 0.65138,-11.7362 0.93055,-18.16315 6.42081,-24.86955 5.95553,-7.17212 17.8666,-14.71681 42.71235,-27.19815 30.70821,-15.36882 50.52898,-41.72868 61.6956,-61.19585 12.09718,-20.95748 16.93605,-38.18919 17.21521,-38.8412 0.0931,-0.37258 10.14302,-36.41945 22.2402,-65.38734 6.88609,-14.80996 8.18887,-25.70784 4.46666,-32.41423 z M 64.202811,231.80586 v -0.0931 c -0.372218,-1.11773 -8.095803,-25.24212 -22.891582,-37.25774 1.861105,-3.26006 4.652767,-6.89269 8.188864,-7.63784 4.74581,-1.02459 10.04996,3.53949 13.77217,7.54469 l 0.651382,0.74516 0.465279,0.18628 c 0.09301,0.0931 0.372226,0.37258 0.651392,0.65201 0.930548,1.11774 2.512487,3.35321 4.652758,7.82414 3.815262,7.91727 9.863855,23.56552 17.122162,53.558 -3.070828,1.02459 -7.630533,3.53949 -10.329134,9.59387 C 70.902787,253.41537 66.343081,239.44371 64.202811,231.80588 Z M 361.88645,15.338359 c 12.00412,26.546143 15.07494,47.876201 15.72633,60.450698 -4.09443,-4.005215 -8.46802,-7.73099 -13.02773,-11.177331 -0.55833,-6.520105 -2.23332,-19.467172 -7.25831,-27.198153 l -1.76805,-2.701187 -3.16387,0.745155 c -0.55833,0.09315 -12.00413,2.887475 -19.63465,10.618457 -3.07083,-1.397165 -6.23471,-2.701186 -9.49164,-3.818918 -1.20971,-0.465723 -2.41943,-0.8383 -3.62915,-1.304021 18.23883,-17.790574 35.36098,-23.751812 42.24707,-25.6147 z m -7.53747,42.101251 c -4.00138,-2.514897 -8.18887,-4.936651 -12.4694,-7.078971 3.07082,-2.328609 6.60692,-3.912063 9.21247,-4.843507 1.48887,3.446342 2.51248,7.824127 3.25693,11.922478 z M 142.18309,15.338359 c 7.07219,1.862888 24.47352,8.010415 42.89845,25.987277 -0.65138,0.279433 -1.39583,0.465721 -2.04721,0.745155 -3.81527,1.397165 -7.44442,2.887475 -11.07358,4.564074 -7.63052,-8.196705 -19.7277,-11.177324 -20.28603,-11.270468 l -3.16388,-0.745155 -1.76805,2.701186 c -5.58331,8.662426 -7.16525,23.751812 -7.53747,29.154185 -4.00137,3.166909 -7.81664,6.520106 -11.44579,10.152738 -0.46528,0.465725 -0.93056,0.931441 -1.39583,1.397166 0.37222,-12.10877 3.07082,-34.463417 15.81939,-62.686158 z m 20.84436,35.67429 c -4.74582,2.514898 -9.39857,5.216084 -13.77217,8.10356 0.74445,-4.564074 1.86111,-9.687014 3.5361,-13.692221 2.88471,1.024588 6.88609,2.79433 10.23607,5.588661 z M 334.80738,306.97335 c -19.7277,4.37779 -36.47764,15.46197 -49.78454,32.97311 -10.51524,13.78537 -18.98327,31.57594 -25.03185,52.81286 -2.79166,9.78015 -4.83887,19.28087 -6.32776,28.03645 -1.48888,-8.75558 -3.5361,-18.2563 -6.32775,-28.03645 -6.04859,-21.23692 -14.51661,-39.02749 -25.03185,-52.81286 -13.39995,-17.51114 -30.14989,-28.59532 -49.78455,-32.97311 -1.39583,-0.46571 -17.77354,-5.6818 -33.59293,-22.35465 0.55834,-8.1967 1.11667,-16.11396 1.48889,-21.33005 0.18611,0.0931 0.27916,0.0931 0.46527,0.18629 0.93055,0.27943 1.95416,0.65201 2.97777,0.93144 1.11666,0.27944 2.23332,0.65202 3.34998,0.93145 0.55833,0.18628 1.20973,0.27943 1.76806,0.46571 0.65138,0.0931 1.20971,0.27944 1.8611,0.46573 1.20972,0.27943 2.51249,0.55886 3.72221,0.74516 1.20972,0.27943 2.51249,0.46572 3.7222,0.65201 1.20973,0.18628 2.5125,0.37257 3.62916,0.46572 1.20971,0.18628 2.32638,0.27943 3.44305,0.37258 1.11666,0.0931 2.14027,0.18628 3.07081,0.18628 0.93056,0.0931 1.76806,0.0931 2.60555,0.0931 0.74445,0 1.39583,0 1.95416,0 1.11666,0 1.76805,0 1.76805,0 0,0 -0.65139,-0.18629 -1.67499,-0.46572 -0.55834,-0.18629 -1.20972,-0.27944 -1.8611,-0.46573 -0.74445,-0.18628 -1.58194,-0.46571 -2.41944,-0.74515 -0.93056,-0.27944 -1.8611,-0.55887 -2.88471,-0.93145 -1.02361,-0.37257 -2.04722,-0.74514 -3.16388,-1.11772 -1.11666,-0.46573 -2.23333,-0.83831 -3.34999,-1.30403 -1.11667,-0.46572 -2.23333,-0.93144 -3.34999,-1.4903 -1.11666,-0.55888 -2.23332,-1.02459 -3.25693,-1.58346 -0.55833,-0.27944 -1.02361,-0.55887 -1.58194,-0.8383 -0.55833,-0.27943 -1.02361,-0.55887 -1.48888,-0.8383 -1.02361,-0.55886 -1.95417,-1.11773 -2.88471,-1.58345 -0.93056,-0.55887 -1.76806,-1.02459 -2.51249,-1.49032 -0.74444,-0.46571 -1.48889,-0.93144 -2.04722,-1.30401 -0.65138,-0.37258 -1.11666,-0.74516 -1.48889,-1.02459 -0.37221,-0.27943 -0.74443,-0.55887 -0.93054,-0.65201 -0.18612,-0.18629 -0.27917,-0.27943 -0.27917,-0.27943 l -0.093,0.18628 -0.46528,-0.37258 C 115.47627,234.97274 101.33189,212.43181 97.144398,185.51309 93.980519,165.30076 97.888842,150.02509 97.888842,149.8388 110.4513,101.77631 140.13591,68.616915 186.2913,51.385208 220.81478,38.531286 252.08133,39.742163 252.91883,39.835307 h 0.46527 0.37223 c 0.93055,0 32.1971,-1.304021 66.62753,11.549901 46.15538,17.231707 75.93305,50.297962 88.40245,98.453592 0,0.18629 3.90832,15.46196 0.74444,35.67429 -4.18748,26.91872 -18.33187,49.45965 -41.87485,66.97079 l -2.14027,1.58346 v 0.37258 c -0.27916,0.18629 -0.55833,0.37258 -0.93054,0.65201 -0.55833,0.37258 -1.30278,0.83829 -2.04722,1.30402 -0.74444,0.46572 -1.58193,1.02459 -2.51249,1.49031 -0.93055,0.46572 -1.8611,1.11773 -2.88471,1.58345 -0.46527,0.27943 -1.0236,0.55887 -1.48888,0.8383 -0.55833,0.27944 -1.02361,0.55887 -1.58194,0.8383 -1.11666,0.55886 -2.14027,1.02459 -3.25693,1.58345 -1.11666,0.55887 -2.23333,1.02459 -3.35,1.49031 -1.11666,0.46573 -2.23332,0.93145 -3.34998,1.30402 -1.11666,0.46573 -2.14027,0.74516 -3.16388,1.11774 -1.02361,0.37258 -1.95416,0.65201 -2.88471,0.93144 -0.93055,0.27943 -1.67499,0.55887 -2.41944,0.74516 -0.74443,0.18629 -1.39582,0.37257 -1.8611,0.46572 -1.0236,0.27943 -1.67499,0.46572 -1.67499,0.46572 0,0 0.65139,0 1.76805,0 0.55833,0 1.20971,0 1.95416,0 0.74444,0 1.67499,-0.0931 2.60554,-0.0931 0.93055,-0.0931 1.95416,-0.0931 3.07082,-0.18629 1.11666,-0.0931 2.23332,-0.18629 3.44305,-0.37258 1.20971,-0.18629 2.41943,-0.27943 3.62915,-0.46572 1.20972,-0.18629 2.51249,-0.37258 3.72221,-0.65201 1.30277,-0.27944 2.51249,-0.46572 3.72221,-0.74516 0.65139,-0.18629 1.20972,-0.27943 1.8611,-0.46572 0.55833,-0.18628 1.20972,-0.27943 1.76805,-0.46573 1.20972,-0.27943 2.32638,-0.65201 3.34999,-0.93144 1.02361,-0.37257 2.04722,-0.65201 2.97776,-0.93144 0.093,0 0.093,0 0.18612,-0.0931 0.37221,5.49552 0.93054,13.41279 1.48887,21.6095 -15.72632,16.02083 -31.45266,21.05063 -32.84848,21.51634 z M 443.0306,231.71271 v 0.0931 c -2.14027,7.63783 -6.69998,21.60949 -12.28329,35.02227 -2.6986,-6.05438 -7.25831,-8.56928 -10.32913,-9.59387 7.25831,-30.08562 13.30689,-45.73387 17.12215,-53.558 2.14027,-4.37778 3.72221,-6.61325 4.65277,-7.82412 0.27917,-0.37258 0.46527,-0.55888 0.65138,-0.65201 l 0.46528,-0.1863 0.65139,-0.74515 c 3.62915,-4.00521 9.02635,-8.56929 13.77217,-7.5447 3.5361,0.74516 6.32775,4.3778 8.18886,7.63784 -14.88883,12.10877 -22.51937,36.14002 -22.89158,37.35089 z"
   class="st0"
   id="XMLID_178_"
   inkscape:connector-curvature="0"
   style="fill:#7b6fd3;stroke-width:0.93099779" /></svg>